<svg width="1431" height="680" viewBox="0 0 1431 680" fill="none" xmlns="http://www.w3.org/2000/svg">
<path d="M1511.74 235.369L1510.41 234.216C1381.22 306.639 1259.72 351.234 1149.39 366.745C1120.18 370.836 1088.18 368.614 1061.54 360.626C1033.5 352.178 1004.03 335.499 1001.44 317.249C1000.7 311.711 1003.2 305.603 1005.87 299.154C1010.02 288.992 1014.41 278.492 1005.62 269.454C985.87 249.207 937.055 246.394 922.532 246.007C821.116 243.306 752.028 257.164 698.441 290.93C678.991 303.167 661.399 319.188 642.681 336.151C607.254 368.357 570.622 401.619 518.903 410.522C478.813 417.44 440.464 406.564 408.139 394.994C357.681 376.866 293.687 339.311 279.703 293.076C265.635 246.664 279.941 195.028 293.786 145.114C299.783 123.31 305.557 102.773 308.815 83.0094C313.041 57.716 315.812 28.3073 296.085 -0.404824C278.699 -25.7213 252.413 -46.8006 220.12 -61.3274C153.396 -91.4494 53.9706 -67.8044 0.752468 -51.0145L-7.92792 -48.2766C-54.088 -33.7074 -101.79 -18.6758 -149.6 -5.2142L-148.76 -3.7901C-100.951 -17.2518 -53.168 -32.3381 -7.00688 -46.8492L1.6735 -49.5872C54.5681 -66.2157 153.099 -89.7213 219 -60.037C250.965 -45.6388 277.003 -24.743 294.221 0.277009C313.696 28.5736 310.921 57.7501 306.773 82.8145C303.513 102.462 297.822 123.06 291.824 144.806C277.981 194.894 263.596 246.643 277.751 293.348C291.907 340.112 356.396 378.034 407.264 396.293C439.917 407.993 478.757 419.003 519.498 411.995C572.03 402.949 608.822 369.462 644.491 337.091C663.128 320.183 680.722 304.22 699.928 292.089C753.113 258.655 821.796 244.898 922.558 247.573C951.93 248.36 988.654 254.766 1003.92 270.374C1012.14 278.81 1007.98 288.972 1003.91 298.788C1001.16 305.408 998.575 311.629 999.407 317.46C1002.09 336.352 1032.14 353.459 1060.83 362.048C1087.87 370.168 1120.29 372.406 1149.9 368.273C1260.47 352.655 1382.22 307.953 1511.74 235.369Z" fill="url(#paint0_radial_35_275)" fill-opacity="0.6"/>
<path d="M1506.68 240.218L1505.36 239.007C1441.91 273.553 1387.77 298.599 1335.09 317.961C1292.37 333.591 1246.34 346.31 1201.86 358.566C1185.46 363.093 1160.84 368.927 1137.07 370.966C1104.9 373.724 1074.6 371.394 1047.16 364.071C1020.62 357.015 990.892 339.804 987.9 321.828C986.996 316.516 989.346 310.75 991.771 304.581C995.606 294.93 999.599 284.994 990.892 276.365C974.97 260.557 938.073 253.623 908.939 252.439C813.865 248.534 744.963 263.791 692.076 300.367C688.609 302.785 685.148 305.492 682.491 307.535C671.222 316.436 659.901 327.074 647.936 338.268C612.283 371.567 571.894 409.38 518.034 417.041C484.433 421.832 448.794 416.917 405.804 401.571C371.428 389.284 289.137 354.907 268.174 300.98C250.961 256.709 267.267 202.772 283.033 150.612C288.982 130.836 294.624 112.208 298.323 94.4331C303.684 68.7197 311.088 33.5172 291.442 4.7501C274.053 -20.7985 247.43 -42.5286 216.451 -56.4827C210.206 -59.2755 202.911 -61.4709 197.913 -62.8818C172.511 -70.1259 143.604 -72.3444 107.028 -69.8723C75.258 -67.7365 42.4203 -61.1768 0.630989 -48.5843C-9.02574 -45.71 -18.6 -42.7746 -28.2558 -39.8424C-68.5024 -27.6542 -110.047 -15.0522 -151.446 -3.54643L-150.689 -2.12552C-109.289 -13.6313 -67.6631 -26.2301 -27.4165 -38.4183C-17.7607 -41.3505 -8.18546 -44.2279 1.4703 -47.1602C43.0158 -59.7041 75.6098 -66.2151 107.216 -68.3573C143.467 -70.784 171.966 -68.5812 197.04 -61.4658C201.956 -60.0581 209.169 -57.9238 215.168 -55.1986C245.818 -41.3731 272.192 -19.8846 289.415 5.42563C308.727 33.7739 301.401 68.7474 296.118 94.2318C292.418 111.949 286.776 130.577 280.826 150.295C265.063 202.629 248.678 256.736 266.061 301.421C287.197 355.934 370.145 390.626 404.767 402.981C448.25 418.52 484.378 423.453 518.386 418.562C573.059 410.759 613.689 372.723 649.583 339.201C661.547 328.008 672.87 317.427 684.057 308.524C686.632 306.478 690.094 303.77 693.479 301.407C745.882 265.102 814.297 250.001 908.719 253.881C937.363 255.045 973.522 261.777 989.03 277.163C997.156 285.189 993.321 294.841 989.562 304.148C987.134 310.143 984.71 316.37 985.619 321.972C988.702 340.531 1019.17 358.235 1046.2 365.426C1073.97 372.819 1104.6 375.22 1137.09 372.416C1161.03 370.326 1185.81 364.499 1202.37 359.92C1246.93 347.608 1293.04 334.893 1335.84 319.208C1388.94 299.92 1443.16 274.818 1506.68 240.218Z" fill="url(#paint1_radial_35_275)" fill-opacity="0.6"/>
<path d="M1501.71 245.071L1500.38 243.86C1450.18 270.509 1390.26 300.783 1326.94 323.445C1291.03 336.265 1251.9 346.989 1213.99 357.353C1206.27 359.433 1198.64 361.515 1191.1 363.659C1170.96 369.202 1146.08 373.402 1124.41 374.884C1091.34 377.086 1060.47 374.617 1032.62 367.453C1006.41 360.699 977.416 343.517 974.194 326.402C973.212 321.261 975.322 315.775 977.507 309.887C980.941 300.684 984.534 291.197 975.996 282.922C959.833 267.337 923.75 260.26 895.345 258.815C804.501 254.262 739.933 270.207 686.046 310.398C683.066 312.661 680.009 315.152 677.114 317.591C667.22 325.849 657.267 335.381 646.671 345.467C611.594 379.079 571.78 417.146 517.25 423.795C483.312 427.935 447.183 423.002 403.47 408.324C369.599 396.925 287.674 364.94 258.926 313.612C234.633 270.285 254.492 209.295 272.023 155.464C277.608 138.284 282.883 122.077 286.627 107.029L287.772 102.318C294.879 73.7725 303.746 38.2208 286.237 10.4641C270.319 -14.8537 244.264 -36.7939 212.785 -51.4052C206.867 -54.1853 200.062 -56.3038 194.735 -57.9014C168.834 -65.6866 137.632 -68.6318 106.764 -66.1711C73.0453 -63.5307 40.2844 -57.2579 0.51392 -45.8631C-17.6669 -40.6508 -36.0895 -35.2739 -54.0254 -30.0521C-86.4883 -20.5785 -120.006 -10.7978 -153.291 -1.70398L-152.533 -0.282919C-119.25 -9.43481 -85.7316 -19.2155 -53.2678 -28.631C-35.4134 -33.856 -16.9092 -39.2299 1.2715 -44.4422C40.8797 -55.7852 73.4785 -62.0061 106.953 -64.598C137.414 -67.0164 168.29 -64.084 193.781 -56.4306C198.944 -54.8974 205.668 -52.724 211.502 -50.0631C242.652 -35.6385 268.46 -13.8818 284.21 11.1395C301.385 38.4774 292.596 73.8003 285.567 102.117L284.422 106.827C280.757 121.763 275.482 137.969 269.898 155.15C252.287 209.152 232.352 270.429 256.896 314.172C285.98 366.035 368.479 398.274 402.515 409.737C446.556 424.543 483.175 429.496 517.52 425.314C572.865 418.638 612.918 380.232 648.236 346.398C658.751 336.308 668.705 326.835 678.437 318.686C681.493 316.137 684.469 313.643 687.449 311.438C740.853 271.576 804.853 255.783 895.044 260.311C922.959 261.737 958.386 268.615 974.135 283.778C982.092 291.45 978.658 300.654 975.298 309.454C973.11 315.168 970.926 321.114 971.913 326.545C975.319 344.885 1005.29 361.99 1031.66 368.807C1059.76 376.039 1090.95 378.578 1124.35 376.332C1146.18 374.855 1171.31 370.665 1191.61 365.013C1199.16 362.927 1206.79 360.844 1214.5 358.707C1252.41 348.342 1291.62 337.621 1327.62 324.747C1391.42 302.103 1451.42 271.717 1501.71 245.071Z" fill="url(#paint2_radial_35_275)" fill-opacity="0.6"/>
<path d="M1496.73 249.924L1495.48 248.716C1437.27 278.708 1380.01 307.461 1318.88 328.932C1276.56 343.824 1231.17 355.697 1180.49 368.642C1157.75 374.432 1133.9 376.7 1111.58 378.273C1079.08 380.555 1047.64 377.948 1018.15 370.489C992.763 364.057 964.269 347.473 960.647 330.807C959.586 325.895 961.373 320.571 963.317 314.905C966.35 306.093 969.542 296.996 961.009 289.012C944.438 273.469 909.254 266.485 881.911 265.138C795.965 260.89 733.865 278.091 680.427 320.793C677.611 323.061 674.716 325.559 671.983 327.947L671.742 328.169C663.623 335.22 655.278 343.364 646.452 352.011C613.07 384.586 571.503 425.137 516.625 430.44C482.021 433.8 445.403 428.848 401.376 414.911C360.138 401.894 285.847 372.872 251.042 325.137C219.826 282.296 242.672 214.637 261.093 160.318C265.913 146.182 270.419 132.787 273.803 120.566C274.727 117.296 275.731 113.914 276.733 110.415C285.37 80.7115 296.089 43.7814 280.469 16.7936C265.186 -9.60144 239.194 -32.5828 209.2 -46.151C204.024 -48.4965 198.115 -50.6965 191.72 -52.7412C166.714 -60.6658 136.563 -64.0921 106.744 -62.3448C69.7554 -60.1786 37.5794 -53.0715 0.559243 -43.0202C-25.2575 -36.0153 -51.4755 -28.62 -76.9639 -21.4864C-102.451 -14.2949 -128.833 -6.90589 -154.812 0.150709L-154.054 1.57178C-128.075 -5.48482 -101.694 -12.8738 -76.2063 -20.0654C-50.7994 -27.2021 -24.4998 -34.5943 1.23534 -41.6023C38.0933 -51.6019 70.1072 -58.6573 106.851 -60.8329C136.263 -62.538 166.086 -59.1824 190.765 -51.3284C197.077 -49.3449 202.904 -47.1481 207.918 -44.8089C237.583 -31.3694 263.243 -8.69065 278.36 17.4659C293.729 44.0962 283.087 80.7391 274.527 110.214C273.525 113.713 272.523 117.153 271.599 120.423C268.215 132.643 263.707 145.981 258.887 160.117C240.39 214.723 217.385 282.665 249.018 325.987C284.156 374.14 358.939 403.356 400.424 416.498C444.861 430.566 481.887 435.534 516.898 432.132C572.672 426.748 614.479 385.916 648.182 353.064C657.009 344.475 665.355 336.331 673.392 329.277L673.633 329.054C676.366 326.666 679.178 324.166 681.996 321.955C734.869 279.637 796.484 262.65 881.695 266.812C908.548 268.139 943.076 274.924 959.232 290.045C967.102 297.423 964.068 306.178 961.111 314.646C959.165 320.196 957.22 325.862 958.368 331.125C962.256 349.019 991.646 365.521 1017.28 372.021C1047.09 379.551 1078.86 382.17 1111.69 379.901C1134.17 378.334 1158.19 376.073 1181.09 370.173C1231.84 357.231 1277.31 345.303 1319.72 330.414C1381.01 308.717 1438.43 279.97 1496.73 249.924Z" fill="url(#paint3_radial_35_275)" fill-opacity="0.6"/>
<path d="M1491.67 254.715L1490.43 253.508L1481.53 257.977C1426.94 285.442 1370.41 313.817 1310.65 334.355C1269.78 348.375 1222.29 361.501 1169.4 373.201C1146.57 378.292 1121.72 379.941 1098.25 381.238C1064.2 383.111 1032.18 380.483 1003.19 373.332C980.102 367.685 952.623 353.286 946.691 335.081C944.888 329.618 947 324.249 948.953 319.106C951.923 311.392 955.051 303.395 945.613 294.912C928.473 279.463 894.435 272.755 868.32 271.688C787.527 268.335 727.812 286.787 674.899 331.597C672.004 334.037 669.032 336.763 666.623 338.99C659.956 345.111 652.976 351.974 645.594 359.227C612.46 391.985 571.224 432.781 515.841 437.136C470.313 440.77 427.399 429.95 399.04 421.49C330.192 400.912 275.206 370.49 244.209 335.891C206.229 293.368 230.401 222.108 249.832 164.813C253.407 154.223 256.828 144.207 259.61 135.037C261.157 129.994 262.784 124.838 264.568 119.34C274.731 88.1869 286.129 52.9069 273.411 23.8276C262.303 -1.5363 236.7 -25.6626 205.051 -40.7444C200.118 -43.0805 194.371 -45.3901 188.138 -47.4865C165.255 -55.2712 137.71 -58.9448 106.32 -58.4759C69.9571 -57.9092 35.2813 -49.1009 1.66147 -40.5419L0.0370185 -40.1408C-31.7156 -32.0896 -63.9444 -23.2448 -95.2005 -14.7684C-115.334 -9.28356 -136.197 -3.53698 -156.739 1.87407L-155.982 3.295C-135.44 -2.17407 -114.576 -7.86265 -94.3612 -13.3443C-63.1875 -21.8819 -30.8763 -30.6653 0.794724 -38.7198L2.41905 -39.121C35.795 -47.6314 70.3903 -56.3847 106.345 -56.9672C137.409 -57.4487 164.627 -53.7877 187.182 -46.1317C193.334 -44.0384 198.917 -41.7932 203.767 -39.4603C235.088 -24.5651 260.36 -0.683568 271.298 24.3258C283.848 53.0507 272.446 88.0986 262.443 119.084C260.659 124.581 258.951 129.734 257.487 134.839C254.703 143.951 251.364 153.97 247.789 164.56C228.281 222.142 203.952 293.744 242.43 336.808C273.596 371.703 328.992 402.315 398.25 423.025C426.773 431.55 470.097 442.443 516.113 438.828C572.473 434.337 613.949 393.261 647.406 360.283C654.788 353.029 661.687 346.163 668.354 340.1C670.764 337.932 673.736 335.205 676.632 332.766C729.062 288.343 788.208 270.043 868.268 273.426C892.75 274.429 927.275 280.982 944.001 296.067C952.777 303.945 949.963 311.259 946.993 318.972C944.963 324.345 942.771 329.827 944.663 335.699C950.767 354.49 978.987 369.266 1002.57 375.048C1031.8 382.208 1064.06 384.904 1098.45 382.985C1121.99 381.691 1146.92 379.987 1170.08 374.851C1223.05 363.096 1270.71 349.977 1311.57 335.899C1371.5 315.309 1428.11 286.878 1482.78 259.417L1491.67 254.715Z" fill="url(#paint4_radial_35_275)" fill-opacity="0.6"/>
<path d="M1486.7 259.569L1485.45 258.304C1477.36 262.224 1469.36 266.206 1461.27 270.184C1410.47 295.244 1357.89 321.105 1302.51 339.783C1250.36 357.31 1200.5 370.345 1158.21 377.351C1133.25 381.489 1107.18 383.033 1084.93 383.971C1049.15 385.489 1016.73 382.902 988.485 376.244C966.215 371.035 939.399 357.3 932.986 339.539C931.105 334.306 932.813 329.153 934.524 324.174C937.009 316.732 939.653 309.006 930.3 300.758C912.917 285.415 878.805 279.168 854.899 278.477C778.447 276.277 723.067 295.477 669.706 342.763C667.214 344.928 664.725 347.268 662.317 349.552L661.755 350.11C656.134 355.344 650.358 361.093 644.18 367.175C611.288 399.769 570.374 440.346 515.141 443.895C469.927 446.787 425.957 436.216 396.869 428.018C331.235 409.477 278.171 381.797 239.076 345.784C192.94 303.178 220.051 222.347 237.995 168.821C240.172 162.411 242.192 156.4 243.974 150.786C245.988 144.427 248.245 137.962 250.578 131.152C261.626 99.2792 274.072 63.2278 264.909 32.1983C257.477 7.2084 232.827 -18.5047 200.584 -34.8851C195.814 -37.273 190.393 -39.6281 184.402 -41.831C162.575 -49.8648 136.163 -54.0746 105.822 -54.319C71.728 -54.5924 35.0158 -45.631 2.68995 -37.7178L-0.396463 -36.9672C-44.0121 -26.3009 -87.9398 -14.7768 -130.404 -3.54414C-139.823 -1.06663 -149.16 1.414 -158.579 3.89153L-157.821 5.3126C-148.402 2.83507 -139.065 0.354436 -129.646 -2.12307C-87.1809 -13.2977 -43.2544 -24.8799 0.280607 -35.4914L3.36714 -36.242C35.5307 -44.1034 71.9989 -53.0162 105.766 -52.7554C135.781 -52.5235 161.867 -48.3265 183.366 -40.4214C189.274 -38.2216 194.695 -35.9245 199.302 -33.543C230.64 -17.6034 255.539 8.3512 262.796 32.6385C271.871 63.3167 259.422 99.1941 248.453 130.895C246.121 137.764 243.864 144.229 241.85 150.588C240.067 156.144 238.048 162.213 235.872 168.623C217.85 222.435 190.584 303.725 237.382 346.878C276.725 383.133 330.119 411 396.08 429.611C425.414 437.877 469.631 448.573 515.332 445.584C571.543 441.957 612.777 401.045 645.992 368.231C652.088 362.146 657.946 356.4 663.486 351.221L664.049 350.721C666.458 348.494 668.947 346.155 671.358 343.987C724.237 297.146 779.13 278.101 854.847 280.273C878.264 280.945 911.721 287.051 928.607 301.968C937.298 309.61 934.969 316.653 932.402 324.092C930.694 329.245 928.825 334.566 930.876 340.154C937.461 358.442 965.017 372.554 987.778 377.899C1016.27 384.624 1049.02 387.223 1085.04 385.715C1107.37 384.78 1133.52 383.239 1158.65 379.049C1201.1 371.991 1251.2 358.966 1303.43 341.384C1358.98 322.713 1411.56 296.736 1462.52 271.682C1470.6 267.472 1478.61 263.548 1486.7 259.569Z" fill="url(#paint5_radial_35_275)" fill-opacity="0.6"/>
<path d="M1481.72 264.421L1480.48 263.156C1468.58 268.785 1456.61 274.643 1444.96 280.282C1396.67 303.698 1346.75 327.98 1294.36 345.208C1239.53 363.27 1189.82 375.324 1146.61 381.077C1124.64 383.998 1100.04 385.715 1071.35 386.404C1030.67 387.384 1000.54 385.118 973.609 379.148C952.244 374.38 926.093 361.424 919.2 344.225C917.158 339.159 918.544 334.226 919.932 329.467C922.013 322.241 924.091 314.782 914.823 306.77C897.694 291.959 865.711 286.2 841.564 285.789C770.348 284.546 719.056 304.367 664.598 354.337C662.509 356.227 660.503 358.18 658.415 360.128L656.971 361.522C652.395 365.869 647.661 370.557 642.687 375.467C610.116 407.726 569.52 447.851 514.273 450.587C469.864 452.815 426.969 443.155 394.529 434.479C335.876 418.818 283.656 392.852 234.829 355.187C183.193 315.384 210.69 223.434 225.523 174.08L227.529 167.199C230.463 157.338 234.046 147.271 237.865 136.633C249.396 104.373 261.315 70.9687 254.468 41.8842C247.97 14.205 226.501 -11.5011 195.55 -28.6435C191.023 -31.1379 185.927 -33.5383 180.097 -35.9091C157.517 -45.0737 130.765 -50.1084 104.912 -50.1214C71.15 -50.0921 34.019 -41.7847 1.19487 -34.4127L-1.16098 -33.8658C-55.7604 -21.6522 -111.464 -7.16186 -160.59 5.61105L-159.832 7.03197C-110.706 -5.74095 -55.0833 -20.1764 -0.48379 -32.3899L1.87194 -32.9369C34.4523 -40.2603 71.4209 -48.516 104.938 -48.5548C130.056 -48.5702 157.136 -43.4647 179.059 -34.5574C184.808 -32.1898 189.821 -29.8507 194.266 -27.4174C224.804 -10.5229 246.024 14.8257 252.434 42.1536C259.194 70.9448 247.353 104.12 235.82 136.264C232.002 146.96 228.419 157.027 225.485 166.888L223.479 173.769C208.651 223.413 180.999 315.821 233.297 356.229C282.372 394.078 334.837 420.112 393.819 435.902C426.423 444.642 469.563 454.311 514.462 452.102C570.686 449.287 611.602 408.827 644.496 376.349C649.47 371.438 654.204 366.75 658.78 362.404L660.224 361.01C662.23 359.058 664.318 357.109 666.326 355.273C720.302 305.749 771.107 286.083 841.589 287.298C865.246 287.69 896.575 293.308 913.29 307.755C921.896 315.22 919.97 321.988 917.971 329.217C916.585 334.15 915.122 339.313 917.25 344.672C924.315 362.399 951.124 375.728 973.062 380.635C1000.16 386.669 1030.53 388.944 1071.46 387.974C1100.23 387.288 1125 385.519 1147.05 382.602C1190.42 376.855 1240.29 364.749 1295.28 346.636C1347.84 329.298 1397.83 305.019 1446.21 281.548C1457.86 275.909 1469.83 270.051 1481.72 264.421Z" fill="url(#paint6_radial_35_275)" fill-opacity="0.6"/>
<path d="M1476.67 269.271L1475.5 268.008C1460.61 274.913 1445.65 282.105 1431.08 289.081C1384.64 311.41 1336.59 334.43 1286.21 350.692C1231.3 368.46 1180.36 379.829 1134.85 384.507C1112.78 386.786 1087.52 388.13 1057.69 388.717C1025.65 389.335 991.468 388.942 958.897 382.175C938.438 377.905 913.034 365.732 905.662 349.153C903.543 344.316 904.605 339.544 905.588 334.943C907.102 327.927 908.693 320.682 899.512 312.963C882.225 298.436 850.499 293.441 828.482 293.576C752.155 293.99 705.746 322.931 659.658 366.207C658.053 367.768 656.366 369.327 654.761 370.889L652.354 373.231C648.821 376.574 645.21 380.088 641.519 383.714C609.181 415.286 568.979 454.556 513.242 457.274C470.788 459.345 426.262 449.68 392.109 440.996C330.028 425.203 277.417 400.207 231.152 364.554C174.973 321.271 197.526 236.088 210.948 185.23L211.254 184.024C214.551 171.452 219.066 158.579 223.812 144.903C234.629 113.834 245.753 81.6747 242.343 53.2449C238.84 24.2317 219.71 -3.0078 189.635 -21.4501C185.432 -24.0479 180.66 -26.5518 175.072 -29.0871C152.144 -39.5409 126.366 -44.886 102.485 -44.069C66.621 -42.9031 31.0036 -36.7407 -2.16145 -30.2517C-55.323 -19.8382 -108.756 -6.12994 -160.401 7.18352L-162.756 7.78838L-161.998 9.20944L-159.643 8.60459C-107.997 -4.65087 -54.5654 -18.4172 -1.56598 -28.779C31.4369 -35.2163 66.8908 -41.3851 102.591 -42.5572C125.984 -43.3351 151.354 -38.0638 173.871 -27.7998C179.377 -25.2676 184.066 -22.8249 188.186 -20.2882C217.768 -2.09698 236.729 24.788 240.143 53.3918C243.55 81.5895 232.422 113.575 221.604 144.528C216.857 158.204 212.424 171.08 209.047 183.707L208.741 184.913C195.242 236.058 172.614 321.643 229.455 365.533C275.969 401.427 328.909 426.551 391.236 442.412C425.552 451.102 470.324 460.834 513.186 458.779C569.82 456.038 610.424 416.436 643.002 384.583C646.693 380.957 650.304 377.443 653.836 374.1L656.244 371.758C657.849 370.196 659.535 368.638 661.14 367.076C706.826 324.132 752.752 295.521 828.262 295.075C849.791 294.979 880.862 299.833 897.571 313.931C906.091 321.103 904.652 327.716 903.137 334.674C902.075 339.446 901.016 344.392 903.304 349.583C910.849 366.749 936.91 379.238 957.943 383.646C990.76 390.48 1025.18 390.882 1057.39 390.271C1087.39 389.69 1112.65 388.347 1134.79 386.071C1180.54 381.344 1231.65 369.981 1286.73 352.161C1337.18 335.844 1385.32 312.77 1431.92 290.389C1446.81 283.368 1461.86 276.121 1476.67 269.271Z" fill="url(#paint7_radial_35_275)" fill-opacity="0.6"/>
<path d="M1471.69 274.123L1470.53 272.86C1453.21 280.715 1435.73 289.028 1418.82 297.073C1373.67 318.524 1326.99 340.785 1278.15 356.237C1224.37 373.295 1172.1 383.859 1122.91 387.641C1100.76 389.337 1076.39 390.367 1043.94 390.853C1011.08 391.381 976.26 391.427 944.27 385.32C924.717 381.607 900.145 370.336 892.293 354.318C890.014 349.707 890.752 345.097 891.412 340.657C892.44 333.854 893.464 326.82 884.452 319.455C867.007 305.27 836.601 301.196 815.818 301.958C738.393 304.94 697.195 338.257 655.129 378.267C653.844 379.435 652.641 380.664 651.356 381.832C650.232 382.89 649.109 384.007 647.985 385.065C645.416 387.517 642.768 390.082 640.038 392.644C608.095 423.478 568.285 461.835 512.374 463.85C470.97 465.324 429.072 456.805 389.851 447.345C321.479 430.902 270.117 407.463 228.204 373.602C172.817 328.899 181.757 263.603 195.711 200.645C199.122 185.178 204.233 168.907 209.189 153.152C218.247 124.218 227.615 94.3106 227.642 66.6515C227.686 35.1079 211.878 6.60509 183.161 -13.5823C178.539 -16.8342 173.518 -19.6377 169.65 -21.7008C150.97 -31.7585 127.396 -36.9603 99.6633 -37.2199C63.3663 -37.5784 27.6597 -31.8835 -2.91537 -26.5701C-56.7472 -17.2263 -110.106 -3.97895 -164.515 9.86559L-163.758 11.2865C-109.348 -2.55804 -56.0701 -15.7504 -2.31991 -25.0974C28.1736 -30.4139 63.6363 -36.0604 99.6885 -35.7113C127.013 -35.4675 150.096 -30.3424 168.447 -20.4714C172.315 -18.4084 177.255 -15.6081 181.793 -12.4755C210.098 7.46412 225.737 35.5545 225.686 66.692C225.656 94.177 216.287 124.026 207.226 152.844C202.27 168.599 197.161 184.928 193.75 200.453C179.721 263.814 170.705 329.398 226.754 374.648C268.914 408.692 320.605 432.26 389.304 448.831C428.689 458.297 470.914 466.887 512.645 465.426C569.535 463.391 609.665 424.698 641.93 393.645C644.659 391.025 647.227 388.515 649.877 386.066C651.001 385.008 652.124 383.891 653.248 382.833C654.533 381.607 655.737 380.436 657.022 379.268C698.848 339.596 739.642 306.496 816.09 303.592C837.932 302.755 867.129 307.652 882.921 320.555C891.354 327.434 890.401 333.834 889.372 340.578C888.715 345.192 887.978 349.919 890.345 354.881C898.449 371.373 923.681 383.017 943.807 386.868C976.123 392.987 1011.03 393.002 1044.13 392.426C1076.66 391.885 1101.11 390.916 1123.34 389.165C1172.78 385.393 1225.21 374.777 1279.24 357.67C1328.23 342.167 1375 319.909 1420.23 298.403C1436.89 290.233 1454.37 281.92 1471.69 274.123Z" fill="url(#paint8_radial_35_275)" fill-opacity="0.6"/>
<path d="M1466.71 278.917L1465.55 277.655C1446.12 286.24 1426.54 295.458 1407.69 304.355C1363.51 325.205 1317.79 346.808 1270 361.605C1218.16 377.694 1164.5 387.334 1110.64 390.24C1083.91 391.701 1056.11 392.251 1029.94 392.689L1028.88 392.706C995.617 393.277 961.212 393.861 929.561 388.521C910.996 385.369 887.174 375.054 878.925 359.717C876.569 355.334 876.906 351.114 877.239 346.662C877.782 340.073 878.239 333.306 869.314 326.292C853.036 313.544 824.423 309.423 803.246 310.982C733.522 316.117 694.348 348.584 650.439 390.495L647.951 392.892C646.506 394.286 645.062 395.68 643.617 397.074L638.96 401.475C606.686 432.005 566.463 469.999 511.421 470.366C468.448 470.677 424.591 462.024 387.343 453.569C315.712 437.29 265.762 415.355 225.415 382.482C169.606 336.951 170.954 276.058 180.815 217.06C184.079 197.644 189.611 177.33 194.91 157.703C201.826 132.34 208.971 106.058 211.17 81.4398C214.198 47.9239 201.475 18.5544 174.191 -3.66518C170.222 -6.89183 165.607 -9.79551 161.652 -12.2098C145.833 -21.8671 125.105 -27.5389 96.1925 -30.1056C63.2783 -33.0009 27.4038 -27.6023 -4.15842 -22.7909C-60.8571 -14.1957 -117.794 -0.332893 -166.766 11.9241L-166.008 13.345C-117.118 1.08486 -60.2626 -12.7811 -3.72617 -21.3245C27.6738 -26.0841 63.385 -31.4891 95.8912 -28.6096C124.314 -26.0618 144.713 -20.5187 160.203 -11.0482C164.077 -8.63699 168.609 -5.85237 172.495 -2.68688C199.364 19.1688 211.92 48.2418 208.966 81.2966C206.684 105.795 199.619 132.023 192.702 157.328C187.322 177.01 181.79 197.324 178.608 216.801C168.753 276.148 167.331 337.443 223.718 383.403C264.313 416.516 314.592 438.581 386.632 454.933C424.044 463.453 468.146 472.115 511.364 471.813C567.466 471.429 608.009 433.1 640.606 402.35L645.263 397.949C646.707 396.555 648.152 395.161 649.597 393.768L652.085 391.37C695.673 349.795 734.525 317.548 803.434 312.497C824.041 310.974 851.917 314.951 867.619 327.329C875.965 333.856 875.497 340.042 875.037 346.635C874.702 351.029 874.372 355.656 876.897 360.334C885.479 376.149 909.961 386.836 929.016 390.066C960.912 395.473 995.481 394.895 1028.91 394.331L1029.97 394.314C1056.14 393.875 1084.02 393.329 1110.75 391.868C1164.85 388.971 1218.76 379.283 1270.84 363.087C1318.79 348.239 1364.59 326.581 1408.85 305.734C1427.7 296.72 1447.28 287.503 1466.71 278.917Z" fill="url(#paint9_radial_35_275)" fill-opacity="0.6"/>
<path d="M1461.66 283.767L1460.58 282.507C1438.96 291.762 1417.27 301.942 1396.39 311.747C1353.26 332 1308.6 352.947 1261.86 367.088C1211.71 382.257 1158.19 390.685 1098.2 392.717C1078.23 393.395 1057.61 393.758 1037.71 394.149C1030.46 394.275 1023.12 394.397 1015.95 394.584C1012.2 394.671 1008.36 394.755 1004.53 394.839C974.615 395.538 943.636 396.197 915.023 392.076C897.447 389.542 874.538 380.19 865.813 365.646C863.297 361.49 863.312 357.489 863.322 353.199C863.298 346.877 863.27 340.323 854.515 333.722C838.411 321.677 810.387 318.622 791.178 320.838C724.352 328.578 686.62 364.348 646.721 402.238L644.875 404.023C643.028 405.749 641.263 407.478 639.415 409.147L637.889 410.537C607.288 438.697 565.442 477.208 510.469 476.823C466.914 476.474 422.731 467.809 384.674 459.728C330.82 448.253 269.452 431.154 222.79 391.311C164.296 341.269 161.696 283.239 166.811 233.103C169.27 209.423 175.056 184.77 180.692 160.865C185.641 139.833 190.823 118.055 193.494 97.3411C198.337 60.1261 188.89 31.6371 163.699 7.75867C160.136 4.37371 156.007 1.31472 152.375 -1.31908C138.42 -11.6001 113.234 -20.5755 92.4856 -22.5948C58.5037 -25.9373 23.9816 -22.574 -5.31498 -18.8349C-61.1413 -11.7137 -116.789 1.21317 -168.686 14.111L-167.928 15.5321C-116.113 2.63108 -60.4642 -10.2378 -4.88175 -17.3104C24.2516 -21.0558 58.6115 -24.3674 92.266 -21.0956C112.606 -19.092 137.218 -10.3708 150.924 -0.273263C154.475 2.35738 158.521 5.35506 162.002 8.67887C186.862 32.3125 196.222 60.4503 191.373 97.2591C188.7 117.915 183.518 139.635 178.568 160.667C172.933 184.572 167.066 209.28 164.69 233.021C159.497 283.444 162.104 341.822 221.094 392.289C268.087 432.434 329.784 449.663 383.965 461.208C422.186 469.353 466.532 478.025 510.332 478.384C566.366 478.809 608.613 439.908 639.537 411.529L641.063 410.138C642.91 408.412 644.757 406.685 646.522 404.956L648.368 403.172C688.027 365.562 725.518 330.015 791.448 322.356C810.169 320.18 837.375 323.144 852.901 334.762C861.16 340.938 861.178 346.911 861.201 353.175C861.19 357.407 861.181 361.756 863.865 366.209C872.924 381.23 896.491 390.896 914.64 393.511C943.497 397.641 974.557 396.986 1004.64 396.292C1008.39 396.205 1012.22 396.121 1015.97 396.034C1023.23 395.909 1030.48 395.783 1037.74 395.6C1057.63 395.208 1078.26 394.846 1098.23 394.167C1158.46 392.087 1212.22 383.669 1262.61 368.393C1309.51 354.201 1354.26 333.198 1397.47 312.948C1418.43 303.204 1440.04 293.021 1461.66 283.767Z" fill="url(#paint10_radial_35_275)" fill-opacity="0.6"/>
<path d="M1456.68 288.62L1455.6 287.302C1432.19 297.068 1409.05 307.829 1386.63 318.213C1344.14 337.853 1300.2 358.19 1253.71 372.515C1194.81 390.651 1138.1 394.027 1085.6 394.898C1076.3 395.06 1066.92 395.162 1057.55 395.322C1039.2 395.599 1020.29 395.854 1001.86 396.302C995.262 396.453 988.66 396.719 981.976 396.925C954.835 397.848 926.716 398.849 900.731 395.816C880.467 393.467 860.893 383.665 853.032 371.938C850.439 368.068 850.13 364.229 849.736 360.155C849.227 354.104 848.715 347.88 839.968 341.743C824.04 330.458 797.422 328.56 779.449 331.577C720.487 341.36 685.559 374.165 648.624 408.807C646.296 411.036 643.886 413.263 641.558 415.434C639.389 417.438 637.303 419.445 635.052 421.388C605.159 448.009 564.258 484.527 509.188 483.211C467.825 482.251 426.923 474.756 381.676 465.875C323.828 454.478 264.192 438.605 219.836 400.069C172.251 358.625 151.817 311.968 153.612 248.598C154.443 220.216 160.309 190.579 166.028 161.922C169.189 146.098 172.424 129.812 174.689 114.069C179.81 78.8945 177.931 49.4222 151.91 19.771C149.165 16.5916 145.854 13.6222 142.955 10.9587L141.961 10.0505C129.621 -1.26994 106.937 -11.7143 88.1285 -14.8185C56.317 -20.0487 23.6502 -17.8894 -7.04235 -14.7262C-62.0777 -9.08207 -116.106 3.15365 -171.18 16.2767L-170.503 17.6945C-115.511 4.56826 -61.5648 -7.67052 -6.77318 -13.2661C23.6755 -16.3808 56.1789 -18.5463 87.5813 -13.3899C106.063 -10.3564 128.172 -0.108208 140.264 10.9707L141.258 11.8789C144.074 14.4812 147.386 17.4506 150.047 20.5688C175.736 49.8013 177.61 79.0415 172.484 113.868C170.218 129.553 166.902 145.894 163.822 161.663C158.104 190.378 152.239 220.073 151.409 248.513C149.538 312.227 170.141 359.24 218.056 400.928C262.744 439.825 322.789 455.772 380.965 467.239C426.376 476.184 467.359 483.682 508.967 484.652C565.099 486.009 606.401 449.159 636.534 422.257C638.703 420.311 640.872 418.307 643.04 416.303C645.45 414.077 647.777 411.848 650.106 409.676C686.881 375.202 721.569 342.678 779.717 332.979C797.121 330.056 822.922 331.922 838.273 342.779C846.36 348.485 846.863 354.187 847.372 360.237C847.684 364.25 848.08 368.441 850.84 372.549C858.953 384.692 879.267 394.87 900.184 397.244C926.413 400.287 954.614 399.289 981.919 398.372C988.603 398.167 995.204 397.9 1001.81 397.749C1020.15 397.24 1039.15 396.988 1057.41 396.766C1066.79 396.606 1076.16 396.505 1085.54 396.345C1138.29 395.426 1195.24 392.117 1254.47 373.82C1301.12 359.443 1345.14 339.051 1387.71 319.356C1410.13 309.089 1433.36 298.388 1456.68 288.62Z" fill="url(#paint11_radial_35_275)" fill-opacity="0.6"/>
<path d="M1451.71 293.473L1450.62 292.156C1425.76 302.27 1401.15 313.671 1377.36 324.756C1335.12 344.347 1291.42 364.578 1245.57 377.999C1192.57 393.522 1142.14 396.677 1072.83 396.898C1042.33 396.996 1014.93 397.155 987.789 398.136C978.904 398.43 969.778 398.89 960.978 399.362C936.207 400.608 910.621 401.939 886.614 400.084C866.199 398.483 846.775 387.875 840.51 378.935C837.92 375.239 837.206 371.559 836.576 368.055C835.586 362.45 834.509 356.61 825.928 350.653C812.232 341.136 785.373 339.46 768.311 343.324C716.314 355.116 682.261 386.564 649.332 416.953C645.317 420.683 641.22 424.41 637.205 428.14C635.196 429.918 633.108 431.867 630.938 433.755C598.134 461.887 558.834 491.682 508.156 489.666C467.108 488.022 425.799 480.57 385.88 473.344L379.009 472.093C310.625 459.767 256.868 444.295 217.05 408.95C169.616 366.758 145.008 319.243 141.959 263.631C140.086 229.636 145.853 194.08 151.477 159.679C152.953 150.4 154.586 140.779 155.897 131.378C160.877 97.5315 163.343 64.5157 139.729 32.5219C137.391 29.3003 134.731 26.2402 132.401 23.4828L131.236 22.104C122.418 11.7315 103.845 -1.68535 83.7819 -6.6356C52.909 -14.265 19.9899 -12.5795 -8.43617 -10.4304C-63.9854 -6.25588 -120.294 6.18158 -173.178 18.5774L-172.501 19.9953C-119.698 7.65438 -63.5534 -4.78943 -8.16628 -8.91227C20.0158 -11.0128 52.6904 -12.7079 83.1542 -5.15225C102.726 -0.336983 120.886 12.7741 129.457 22.9631L130.621 24.3417C133.033 27.1603 135.529 30.0982 137.866 33.2619C161.147 64.8948 158.678 97.6784 153.774 131.238C152.381 140.578 150.829 150.202 149.354 159.539C143.732 193.998 137.966 229.612 139.84 263.723C142.976 319.629 167.671 367.495 215.436 409.931C255.585 445.637 309.671 461.238 378.546 473.641L385.417 474.892C425.417 482.12 466.889 489.579 508.101 491.23C559.758 493.283 599.46 463.156 632.667 434.749C634.837 432.861 637.007 430.916 639.016 429.138C643.113 425.411 647.128 421.681 651.143 417.951C683.912 387.729 717.724 356.505 769.07 344.803C785.562 341.033 811.442 342.671 824.561 351.76C832.565 357.346 833.55 362.661 834.623 368.269C835.255 371.947 835.971 375.744 838.727 379.62C845.325 388.921 865.408 399.96 886.558 401.589C910.81 403.454 936.477 402.126 961.33 400.883C970.13 400.411 979.256 399.952 988.059 399.654C1015.12 398.728 1042.6 398.572 1073.02 398.471C1128.55 398.297 1187.73 396.698 1246.57 379.43C1292.58 365.957 1336.37 345.671 1378.69 326.025C1402.32 314.992 1426.84 303.588 1451.71 293.473Z" fill="url(#paint12_radial_35_275)" fill-opacity="0.6"/>
<path d="M1446.65 298.265L1445.57 296.948C1419.32 307.415 1393.42 319.346 1368.33 330.902C1326.33 350.271 1282.87 370.337 1237.34 383.423C1180.85 399.681 1123.02 399.186 1061.77 398.733L1059.89 398.719C1035.83 398.543 1004.35 398.486 973.628 399.909C962.627 400.412 951.143 401.302 940.146 402.095C917.666 403.778 894.452 405.49 872.663 404.648C853.731 403.917 834.818 394.604 828.238 386.406C825.573 383.055 824.537 379.652 823.585 376.368C822.111 371.092 820.553 365.697 812.144 360.327C798.625 351.687 773.258 351.402 757.516 356.129C711.667 369.841 680.012 398.365 649.402 426.002C643.938 430.894 638.314 435.954 632.688 440.897C630.839 442.508 628.749 444.34 626.577 446.112C592.621 473.62 554.628 498.653 506.713 496.048C469.654 493.978 432.281 487.779 396.133 481.744C389.427 480.615 382.721 479.486 376.016 478.415C316.564 468.696 255.026 456.054 213.695 417.983C165.655 373.738 138.629 327.928 131.109 278.058C125.146 238.454 130.484 196.735 135.681 156.344L136.694 148.613C141.238 113.068 145.488 79.4833 126.416 45.9834C124.82 43.1964 123.144 40.5221 121.47 37.964C120.8 36.8943 120.131 35.8827 119.461 34.8711C112.005 22.9854 96.5068 8.17962 78.789 2.04424C50.6528 -7.74094 19.3453 -7.21077 -10.3164 -5.80527C-66.1368 -3.20687 -122.531 8.93724 -175.582 21.0947L-174.906 22.5126C-122.018 10.3488 -65.7034 -1.68255 -10.2095 -4.29356C19.2084 -5.65048 50.1894 -6.19309 77.833 3.3991C95.0593 9.39948 110.143 23.8413 117.514 35.4917C118.184 36.5033 118.853 37.5149 119.523 38.5846C121.197 41.1428 122.873 43.817 124.468 46.5461C143.372 79.7495 139.119 113.16 134.654 148.534L133.641 156.265C128.444 196.656 123.108 238.491 129.074 278.269C136.599 328.429 163.791 374.478 212.08 418.965C253.826 457.458 315.774 470.173 375.634 479.966C382.339 481.037 389.045 482.166 395.751 483.295C431.98 489.333 469.518 495.596 506.659 497.669C555.473 500.367 593.949 475.005 628.227 447.22C630.399 445.448 632.569 443.56 634.418 441.95C640.044 437.007 645.668 431.947 651.132 427.055C681.582 399.586 713.076 371.171 758.438 357.672C773.532 353.153 797.839 353.396 810.779 361.608C818.611 366.608 819.999 371.59 821.554 376.811C822.508 380.211 823.546 383.789 826.378 387.319C833.29 395.879 852.943 405.568 872.61 406.328C894.643 407.179 917.939 405.47 940.501 403.79C951.497 402.997 962.981 402.107 973.901 401.601C1004.46 400.172 1035.94 400.171 1060 400.405L1061.88 400.419C1123.38 400.881 1181.45 401.385 1238.26 385.024C1283.96 371.887 1327.5 351.766 1369.58 332.4C1394.58 320.667 1420.48 308.736 1446.65 298.265Z" fill="url(#paint13_radial_35_275)" fill-opacity="0.6"/>
<path d="M1441.67 303.116L1440.67 301.802C1413.12 312.509 1386.01 324.973 1359.79 337.007C1317.95 356.208 1274.65 376.107 1229.36 388.912C1178.54 403.243 1125.84 402.135 1069.96 400.904C1062.37 400.726 1054.7 400.546 1047.03 400.424C1013.1 399.867 984.562 400.33 959.795 401.866C946.841 402.642 933.246 404.088 920.139 405.437C899.867 407.553 878.944 409.702 859.21 409.81C841.678 409.886 823.441 401.991 816.549 394.592C813.725 391.584 812.535 388.639 811.258 385.458C809.302 380.627 807.342 375.623 799.109 370.956C785.852 363.369 762.548 364.556 747.634 370.069C707.757 384.823 678.016 410.754 649.32 435.798C642.568 441.683 635.575 447.792 628.577 453.61C626.325 455.495 624.393 457.044 622.541 458.422C591.456 482.04 553.276 505.673 505.592 502.266C472.524 499.886 439.001 494.706 406.539 489.625C395.664 487.929 384.299 486.156 373.263 484.57C309.659 475.27 249.365 463.894 210.173 426.95C164.435 383.779 134.723 338.271 121.792 291.613C110.943 252.4 113.527 211.851 117.749 166.783C118.092 162.911 118.517 159.043 118.861 155.229C122.006 123.805 125.296 91.2849 112.376 59.9363C111.356 57.4614 110.256 55.0994 109.156 52.7374C108.395 51.0844 107.634 49.4892 107.038 47.9585C101.44 35.1009 89.7472 18.5866 73.4701 10.8252C48.3953 -1.21917 17.3141 -1.78209 -12.2816 -1.30187C-70.7393 -0.371021 -131.528 12.3573 -177.992 23.3775L-177.316 24.7952C-131.014 13.8268 -70.4693 1.14714 -12.2564 0.206865C17.0129 -0.285997 47.6861 0.261212 72.2674 12.0546C88.052 19.6229 99.4946 35.7797 105.006 48.402C105.684 49.9359 106.445 51.5309 107.207 53.184C108.305 55.4879 109.405 57.85 110.343 60.3217C123.178 91.4351 119.885 123.781 116.738 155.089C116.314 158.958 115.971 162.829 115.627 166.643C111.408 211.885 108.742 252.489 119.676 291.879C132.693 338.772 162.49 384.516 208.476 427.87C248.083 465.295 308.868 476.747 372.88 486.063C383.999 487.71 395.282 489.422 406.156 491.117C438.617 496.141 472.223 501.382 505.454 503.768C554.037 507.268 592.7 483.306 624.189 459.471C626.042 458.093 627.972 456.486 630.306 454.605C637.303 448.729 644.296 442.62 651.13 436.737C679.746 411.806 709.327 386.043 748.798 371.389C762.739 366.245 785.473 365.036 797.905 372.127C805.563 376.482 807.351 381.016 809.307 385.847C810.583 388.969 811.86 392.208 814.849 395.397C822.239 403.279 840.887 411.364 859.398 411.267C879.295 411.166 900.3 409.02 920.653 406.907C933.76 405.558 947.275 404.166 960.147 403.388C984.913 401.851 1013.37 401.385 1047.22 401.939C1054.89 402.061 1062.48 402.238 1070.06 402.415C1126.11 403.653 1179.06 404.829 1230.28 390.339C1275.81 377.485 1319.19 357.59 1361.12 338.334C1387.09 326.232 1414.2 313.827 1441.67 303.116Z" fill="url(#paint14_radial_35_275)" fill-opacity="0.6"/>
<path d="M1436.7 307.97L1435.7 306.656C1407.01 317.551 1378.85 330.496 1351.57 342.953C1309.65 362.151 1266.35 382.05 1221.13 394.394C1173.88 407.239 1121.25 405.206 1070.32 403.238C1058.41 402.778 1046.01 402.299 1034.01 402.01C1000.4 401.233 971.541 401.858 945.887 403.94C931.064 405.107 915.442 407.287 900.39 409.373C882.326 411.864 863.694 414.449 846.014 415.448C829.718 416.326 812.487 410.035 805.2 403.433C802.383 400.831 800.871 398.163 799.356 395.379C797.001 391.055 794.56 386.554 786.666 382.654C773.674 376.237 752.109 379.057 738.426 384.965C704.258 399.765 677.236 422.496 651.017 444.505C642.331 451.765 633.404 459.307 624.308 466.436C623.02 467.43 621.732 468.424 620.362 469.415C619.718 469.912 619.073 470.409 618.428 470.848C597.084 486.839 553.808 512.944 504.396 508.599C475.646 506.039 446.542 501.783 418.338 497.678C402.642 495.39 386.455 493.025 370.436 490.956C312.245 483.489 246.291 475.026 206.172 436.248C162.158 393.782 129.327 347.052 113.611 304.577C101.482 271.752 97.1118 234.703 99.3713 184.457C99.7233 176.236 100.398 167.796 100.996 159.643C103.137 131.601 105.343 102.577 97.6974 74.5053C97.0903 72.3363 96.484 70.2253 95.8789 68.1724C95.1892 65.9422 94.5822 63.7732 94.0587 61.7234C91.7079 52.8184 84.5741 30.9713 67.9181 20.064C45.9851 5.7055 15.2937 4.05586 -14.3184 3.54967C-72.5634 2.57514 -133.602 15.0039 -180.313 25.8986L-179.637 27.3163C-133.17 16.4702 -72.375 4.09015 -14.3748 5.05525C14.7477 5.54252 45.0311 7.17634 66.4686 21.1678C82.629 31.708 89.6754 53.2037 91.9426 61.9895C92.4662 64.0393 93.1548 66.2115 93.8456 68.4997C94.4507 70.5526 95.1384 72.6667 95.663 74.7745C103.224 102.669 101.016 131.577 98.8737 159.561C98.2759 167.714 97.6014 176.154 97.2495 184.375C94.9113 234.792 99.3653 271.96 111.579 304.963C127.379 347.614 160.376 394.525 204.474 437.168C245.091 476.43 311.535 484.912 370.135 492.452C386.072 494.518 402.259 496.883 417.955 499.171C446.16 503.276 475.345 507.535 504.176 510.098C554.568 514.539 598.41 488.109 619.995 471.894C620.639 471.397 621.284 470.958 621.929 470.461C623.298 469.47 624.668 468.479 625.957 467.485C635.053 460.356 643.979 452.815 652.665 445.496C678.722 423.598 705.663 400.922 739.508 386.282C752.786 380.533 773.623 378.09 785.464 383.941C792.865 387.59 795.054 391.676 797.41 396C798.924 398.784 800.522 401.687 803.586 404.473C811.204 411.378 829.338 417.993 846.286 417.082C864.129 416.09 882.762 413.504 900.906 411.016C915.959 408.93 931.5 406.805 946.24 405.577C971.814 403.55 1000.59 402.922 1034.12 403.695C1046.12 403.985 1058.52 404.464 1070.43 404.924C1121.6 406.901 1174.56 408.947 1222.14 395.94C1267.52 383.545 1310.98 363.652 1352.98 344.4C1379.93 331.756 1408.01 318.807 1436.7 307.97Z" fill="url(#paint15_radial_35_275)" fill-opacity="0.6"/>
<path d="M1456.72 301.977L1455.72 300.663C1426.13 311.64 1372 335.856 1343.92 348.804C1301.68 368.28 1257.97 388.394 1212.99 399.878C1168.4 411.202 1117.14 408.41 1067.51 405.681C1052.08 404.853 1036.16 403.948 1020.83 403.529C987.701 402.655 957.786 403.529 931.895 406.124C915.124 407.854 897.48 410.999 880.406 414.109C864.713 416.924 848.452 419.891 832.904 421.61C817.601 423.338 801.371 418.42 794.021 412.917C791.131 410.776 789.461 408.45 787.709 406.062C784.955 402.303 782.199 398.427 774.562 395.291C762.163 390.231 742.409 394.049 729.386 400.446C700.669 414.471 676.53 434.008 653.195 452.881C642.413 461.626 631.228 470.646 619.787 479.018C618.498 479.954 617.127 480.887 615.837 481.765L613.981 482.969C593.502 497.023 551.801 519.766 502.783 514.625C479.254 512.151 455.385 508.793 432.333 505.583C411.08 502.616 389.091 499.563 367.358 497.158L364.907 496.889C303.22 490.041 239.41 482.995 201.352 445.572C162.962 407.846 127.416 359.677 106.228 316.701C90.1036 283.895 81.9726 246.295 81.3096 201.735C81.1663 188.276 81.9915 174.217 82.7429 160.619C84.1436 137.072 85.5301 112.654 82.0433 89.4407C81.7654 87.4583 81.4876 85.4761 81.2108 83.5518C80.8398 80.87 80.4697 78.2462 80.02 75.7354C79.8365 74.5106 79.6519 73.2277 79.3858 71.9417C77.1052 57.4726 74.5489 41.1373 61.5507 29.5015C42.9219 12.7771 11.3122 9.87435 -16.8475 8.43849C-75.3703 5.48162 -139.745 18.3613 -183.046 28.3439L-182.37 29.7618C-139.231 19.8309 -75.1827 6.9386 -16.9863 9.88282C10.6837 11.2998 41.8025 14.1256 59.8524 30.3637C72.4367 41.6356 74.9903 57.7969 77.267 72.0338C77.4515 73.3167 77.6361 74.5995 77.9012 75.8275C78.2693 78.3352 78.721 80.9621 79.091 83.5859C79.3678 85.5102 79.6455 87.4925 79.9232 89.4748C83.4898 112.576 82.0211 136.932 80.6194 160.421C79.7873 174.074 78.9619 188.133 79.1868 201.595C79.7711 246.326 87.9867 284.103 104.195 317.028C125.386 360.178 161.097 408.47 199.57 446.315C238.208 484.282 302.426 491.344 364.522 498.266L366.973 498.535C388.707 500.94 410.614 503.99 431.867 506.956C454.918 510.167 478.788 513.524 502.398 516.002C552.315 521.294 594.663 498.169 615.384 483.951L617.158 482.744C618.529 481.811 619.9 480.878 621.189 479.942C632.63 471.57 643.815 462.55 654.677 453.75C677.932 434.932 701.991 415.45 730.466 401.589C743.004 395.463 761.699 391.778 773.358 396.462C780.42 399.344 783.007 402.865 785.678 406.564C787.432 409.009 789.267 411.458 792.323 413.779C800.086 419.588 817.053 424.708 833.17 422.896C848.799 421.122 865.06 418.155 880.834 415.343C897.828 412.288 915.389 409.082 932.08 407.407C957.807 404.806 987.559 403.926 1020.6 404.796C1035.86 405.212 1051.78 406.059 1067.21 406.945C1117.08 409.683 1168.59 412.485 1213.58 401.06C1258.81 389.586 1302.59 369.359 1345 349.832C1373.17 337.119 1427.22 312.899 1456.72 301.977Z" fill="url(#paint16_radial_35_275)" fill-opacity="0.6"/>
<path d="M1456.42 306.193L1455.42 304.879C1424.62 316.04 1364.92 341.149 1335.94 354.352C1293.85 373.544 1250.31 393.375 1204.76 405.184C1161.23 416.434 1109.54 412.349 1059.56 408.447C1041.52 406.996 1024.45 405.699 1007.8 404.997C974.589 403.714 944.434 404.869 918.317 408.557C899.523 411.194 880.186 415.55 861.581 419.818C848.095 422.892 834.121 426.063 820.624 428.499C806.72 430.978 791.578 427.725 783.673 423.187C780.791 421.51 778.884 419.638 776.975 417.651C773.906 414.575 770.754 411.38 763.457 409.068C751.242 405.291 732.978 410.384 721.178 416.771C698.466 428.999 678.501 444.58 659.181 459.664C645.335 470.495 630.924 481.71 615.676 491.616C614.063 492.714 611.965 494.024 610.026 495.109C573.268 516.015 539.8 523.883 501.58 520.667C479.202 518.759 456.395 515.5 432.278 512.017C410.043 508.839 387.152 505.519 364.772 503.436L356.033 502.635C298.368 497.334 233.025 491.33 196.456 455.124C166.103 424.958 134.664 383.442 100.385 328.131C80.1025 295.396 68.1505 258.518 64.7108 218.605C62.9852 198.301 64.0973 177.005 65.2211 156.404C66.1601 139.392 67.0885 121.742 66.3974 104.783C66.2547 101.124 66.1936 97.4683 66.1345 93.9288L66.0724 90.2152C66.0385 88.1844 66.0046 86.1534 66.0513 84.0677C65.9644 69.1035 65.9261 52.1697 55.5161 39.2421C40.9394 20.9927 9.78375 15.9618 -18.8831 13.4626C-76.8705 8.38088 -141.576 20.9577 -185.123 30.8729L-184.447 32.2908C-141.063 22.4274 -76.6821 9.89577 -19.1027 14.9617C8.99292 17.4389 39.5753 22.3316 53.6526 39.9819C63.7314 52.6067 63.7659 69.3084 63.8499 84.0985C63.8848 86.1875 63.838 88.2733 63.871 90.2461L63.933 93.9597C63.9921 97.4992 64.0533 101.155 64.196 104.814C64.8871 121.773 63.9568 139.307 63.0178 156.319C61.895 176.977 60.7826 198.274 62.5093 218.636C65.9528 258.781 77.9885 295.778 98.3558 328.69C132.637 384.117 164.159 425.753 194.594 455.98C231.662 492.727 297.495 498.75 355.65 504.128L364.389 504.929C386.688 507.008 409.66 510.331 431.814 513.507C454.949 516.836 478.902 520.313 501.36 522.166C540.234 525.466 574.189 517.442 611.431 496.265C613.451 495.126 615.548 493.757 617.161 492.66C632.571 482.701 646.9 471.425 660.827 460.598C680.067 445.568 699.951 430.042 722.583 417.869C733.898 411.754 751.349 406.803 762.745 410.375C769.549 412.493 772.37 415.386 775.356 418.4C777.347 420.391 779.338 422.439 782.468 424.242C790.703 429.025 806.745 432.486 821.299 429.859C834.878 427.426 848.852 424.255 862.338 421.181C880.943 416.971 900.117 412.609 918.83 409.968C944.866 406.335 974.776 405.113 1007.83 406.448C1024.47 407.091 1041.46 408.443 1059.51 409.837C1109.73 413.806 1161.66 417.9 1205.67 406.496C1251.47 394.638 1295.1 374.752 1337.26 355.505C1366.08 342.412 1425.7 317.357 1456.42 306.193Z" fill="url(#paint17_radial_35_275)" fill-opacity="0.6"/>
<path d="M1459.81 308.736L1458.81 307.364C1427.68 318.28 1359.37 345.98 1330.15 359.406C1287.26 379.204 1242.91 399.642 1196.28 410.134C1153.21 419.778 1102.66 415.215 1053.65 410.828C1033.07 408.989 1013.55 407.191 994.535 406.457C961.647 405.128 930.521 406.767 904.58 411.215C883.518 414.867 862.416 420.894 841.961 426.714C830.923 429.883 819.561 433.155 808.434 435.915C795.522 439.185 781.298 437.186 773.497 433.985C770.541 432.769 768.56 431.359 766.414 429.826C763.113 427.495 759.647 425.042 752.608 423.552C741.233 421.199 724.851 426.655 713.38 433.228C713.218 433.28 713.138 433.393 712.976 433.445C695.126 443.831 678.535 456.295 662.588 468.32C646.32 480.623 629.406 493.307 610.99 503.961C609.293 504.939 607.435 505.969 605.414 507.051C572.754 524.229 533.322 531.52 499.885 526.575C452.957 519.601 407.097 513.074 361.452 509.687C357.042 509.342 352.47 509.05 347.897 508.699C290.661 504.632 225.75 500.037 190.257 464.859C176.741 451.463 167.35 436.082 158.211 421.174C155.109 416.067 151.84 410.78 148.492 405.663C139.704 392.161 128.477 379.202 117.583 366.603C109.766 357.545 101.616 348.126 94.692 338.813C70.0823 305.795 54.4095 270.744 48.2631 234.787C42.7462 202.332 45.4403 168.339 48.1528 135.449C48.5582 130.42 48.9645 125.449 49.3698 120.419C49.8353 114.117 50.2456 109.378 50.7421 104.932C51.023 102.217 51.3834 99.3898 51.7429 96.5043C53.7671 80.9838 56.0022 63.4419 48.1783 49.1066C36.9048 28.4334 4.82721 21.9171 -21.8976 18.5071C-64.8861 13.0191 -119.282 17.8761 -188.181 33.3064L-187.505 34.7242C-118.931 19.3393 -64.9424 14.5246 -22.2812 19.942C3.87135 23.2719 35.294 29.6469 46.2294 49.6112C53.8843 63.592 51.6473 81.0178 49.7009 96.3093C49.3414 99.1948 48.981 102.022 48.7001 104.737C48.2035 109.183 47.7933 113.922 47.3287 120.283C46.9234 125.312 46.517 130.283 46.1117 135.312C43.4818 168.264 40.708 202.369 46.2269 234.94C52.3771 271.13 68.052 306.296 92.8278 339.494C99.8349 348.869 107.903 358.285 115.802 367.346C126.613 379.883 137.839 392.842 146.544 406.226C149.892 411.342 153.078 416.568 156.181 421.675C165.32 436.641 174.794 452.084 188.394 465.599C224.467 501.379 289.868 505.993 347.513 510.076C352.086 510.427 356.576 510.716 360.986 511.06C406.467 514.441 452.327 520.968 499.173 527.939C533.184 533.022 573.347 525.586 606.411 508.133C608.431 507.051 610.372 506.024 612.067 504.988C630.644 494.224 647.557 481.483 663.907 469.183C679.854 457.158 696.365 444.748 714.134 434.417C725.037 428.054 741.011 422.582 751.813 424.797C758.279 426.149 761.415 428.358 764.634 430.685C766.78 432.218 768.926 433.751 772.129 435.092C780.341 438.483 795.3 440.568 808.862 437.149C819.988 434.332 831.432 431.063 842.471 427.952C862.844 422.128 883.947 416.101 904.846 412.501C930.624 408.047 961.424 406.453 994.149 407.775C1013.08 408.565 1032.52 410.302 1053.1 412.141C1102.27 416.592 1153.16 421.167 1196.62 411.423C1243.5 400.883 1288.02 380.393 1331.07 360.543C1360.53 347.3 1428.84 319.659 1459.81 308.736Z" fill="url(#paint18_radial_35_275)" fill-opacity="0.6"/>
<path d="M1463.36 310.741L1462.44 309.372C1431.79 319.901 1354.96 350.622 1325.91 364.287C1281.33 385.238 1235.12 406.88 1187.71 414.906C1145.18 422.077 1096.17 417.516 1048.8 413.076C1026.5 410.997 1003.46 408.831 981.511 407.983C958.498 407.094 924.169 407.392 891.336 414.241C867.931 419.136 844.987 427.238 822.854 435.081C814.342 438.115 805.585 441.198 796.989 444.055C784.823 448.108 771.599 447.307 763.901 445.444C760.953 444.692 758.818 443.798 756.517 442.782C752.984 441.195 749.288 439.603 742.589 438.938C731.071 437.797 715.363 444.555 705.516 450.727C691.632 459.295 678.175 468.981 665.039 478.389C646.504 491.706 627.244 505.517 606.63 516.434C604.852 517.351 602.829 518.317 601.129 519.063C570.047 533.113 531.639 538.181 498.435 532.608C446.341 523.926 400.581 518.505 358.623 516.13C352.746 515.787 346.787 515.499 340.666 515.205C283.613 512.362 218.888 509.166 184.065 475C169.888 461.115 160.89 444.879 152.146 429.174C149.624 424.611 147.017 419.93 144.331 415.361C133.674 397.379 118.966 381.038 104.674 365.177C99.9379 359.949 95.1185 354.602 90.4622 349.261C61.4391 315.667 42.3726 282.515 33.7663 250.637C22.9812 210.383 27.5827 168.52 32.7571 136.536C33.79 130.024 34.7636 124.842 35.8275 120.186C36.5825 116.562 37.4989 112.829 38.417 109.211C42.5436 92.6118 46.7419 75.4357 41.3381 59.5122C33.529 36.3054 0.118685 28.1141 -24.253 23.9832C-66.6178 16.7797 -120.947 20.7694 -190.418 36.1196L-189.742 37.5373C-120.677 22.2874 -66.6733 18.3431 -24.7177 25.4728C-0.836573 29.5268 31.755 37.5126 39.3056 59.8977C44.5415 75.5247 40.3412 92.5847 36.2933 109.013C35.3751 112.631 34.459 116.364 33.704 119.988C32.7217 124.648 31.7489 129.887 30.6344 136.396C25.3794 168.435 20.7808 210.472 31.6504 250.903C40.2596 282.955 59.4105 316.284 88.5989 350.001C93.255 355.342 98.0755 360.747 102.811 365.975C117.02 381.716 131.809 398.061 142.302 415.92C144.988 420.489 147.594 425.171 150.117 429.733C158.943 445.499 168.025 461.855 182.286 475.859C217.689 510.627 282.986 513.846 340.528 516.707C346.65 517.001 352.608 517.29 358.485 517.633C400.361 520.004 445.957 525.361 497.97 534.039C531.746 539.693 570.723 534.53 602.291 520.267C603.991 519.521 606.095 518.559 607.873 517.584C628.648 506.557 647.908 492.746 666.523 479.374C679.579 470.021 693.036 460.335 706.838 451.764C719.43 443.958 733.302 439.507 742.205 440.373C748.413 440.961 751.781 442.425 755.314 444.011C757.615 445.027 759.915 446.044 763.11 446.863C771.135 448.855 785.094 449.684 797.827 445.421C806.505 442.567 815.261 439.426 823.773 436.392C845.824 428.546 868.606 420.496 891.849 415.653C924.357 408.848 958.441 408.542 981.29 409.424C1003.16 410.269 1026.19 412.435 1048.41 414.511C1096.03 418.96 1145.2 423.527 1188.14 416.314C1235.96 408.246 1282.24 386.491 1327.07 365.492C1356.12 351.885 1432.88 321.219 1463.36 310.741Z" fill="url(#paint19_radial_35_275)" fill-opacity="0.6"/>
<path d="M1471.44 311.021L1470.52 309.652C1439.95 319.952 1350.06 355.189 1321.01 368.854C1275.21 390.337 1227.88 412.573 1178.89 419.321C1136.99 425.067 1089.45 420.272 1043.54 415.541C1018.62 413.013 992.968 410.398 968.487 409.511C935.846 408.307 903.762 411.185 878.261 417.564C852.679 423.94 828.551 434.432 805.233 444.549C798.918 447.32 792.359 450.14 785.962 452.85C772.843 458.374 758.642 457.767 754.641 457.439C751.619 457.206 749.329 456.77 746.955 456.272C743.192 455.547 739.346 454.76 733.069 454.924C724.019 455.096 710.973 460.101 698.305 468.252C688.865 474.323 679.355 481.088 670.167 487.634C649.213 502.539 627.533 517.996 602.266 528.617C600.16 529.464 598.459 530.152 596.838 530.785C566.931 541.923 530.524 544.692 496.983 538.467C450.026 529.752 402.554 524.381 355.793 522.516C348.775 522.245 341.513 522.023 333.844 521.842C278.933 520.301 210.642 518.416 177.06 485.284C162.051 470.439 153.198 453.106 144.599 436.306C142.743 432.581 140.806 428.911 138.869 425.24C125.145 399.486 106.213 379.27 86.3042 359.133C52.1243 324.412 31.0769 294.721 20.0719 265.708C7.52811 232.46 6.01401 195.521 15.6585 152.867C16.875 147.579 18.4092 141.782 20.3455 135.652C21.6601 131.354 23.2158 126.833 24.7752 122.544C30.7661 105.263 36.9103 87.4081 34.011 70.0738C30.7552 50.928 10.879 37.6348 -26.9342 29.5054C-67.9398 20.6727 -123.751 23.7933 -192.901 38.8659L-192.225 40.2837C-123.563 25.3082 -68.1594 22.1718 -27.5628 30.9308C9.3508 38.9095 28.8111 51.7228 31.893 70.224C34.7865 87.2102 28.6404 104.949 22.6476 122.114C21.1708 126.464 19.6143 130.927 18.2191 135.28C16.2827 141.41 14.7493 147.265 13.5328 152.553C3.89206 195.439 5.32868 232.607 18.0386 266.035C29.1281 295.225 50.26 325.094 84.6051 359.937C104.432 380.013 123.281 400.167 136.92 425.745C138.857 429.415 140.794 433.085 142.65 436.81C151.25 453.669 160.186 471.121 175.443 486.149C209.688 519.887 278.551 521.794 333.951 523.354C341.621 523.593 348.882 523.757 355.818 524.025C402.416 525.883 449.805 531.193 496.599 539.902C530.63 546.204 567.609 543.399 598.002 532.106C599.623 531.473 601.405 530.788 603.511 529.883C629.02 519.155 650.781 503.644 671.898 488.687C681.086 482.199 690.515 475.431 699.955 469.359C709.476 463.232 723.23 456.631 733.339 456.442C739.372 456.327 742.89 456.985 746.654 457.768C749.027 458.266 751.563 458.711 754.749 459.009C760.138 459.391 774.089 459.756 787.371 454.18C793.85 451.473 800.408 448.653 806.723 445.882C829.961 435.82 854.008 425.383 879.346 419.056C904.603 412.725 936.363 409.951 968.758 411.087C993.157 411.971 1018.81 414.586 1043.64 417.111C1089.8 421.794 1137.51 426.652 1179.74 420.861C1229.12 414.071 1276.7 391.729 1322.67 370.135C1351.23 356.452 1441.03 321.212 1471.44 311.021Z" fill="url(#paint20_radial_35_275)" fill-opacity="0.6"/>
<path d="M1463.37 325.323L1462.45 323.954C1431.88 334.022 1346.2 363.041 1317.07 376.645C1270.13 398.548 1221.5 421.256 1170.95 426.784C1129.84 431.284 1083.84 426.26 1039.39 421.411C1011.94 418.437 983.508 415.309 956.501 414.498C923.699 413.462 891.709 417.039 866.39 424.585C839.367 432.587 814.789 445.381 791.02 457.8C786.087 460.335 781.156 462.928 776.224 465.462C768.218 469.56 758.474 472.083 746.505 473.244C743.411 473.531 740.966 473.61 738.276 473.68C734.444 473.764 730.45 473.9 724.592 474.717C716.131 475.956 704.231 481.237 692.051 489.291C685.76 493.455 679.552 497.738 673.021 502.241C650.287 518.005 626.746 534.318 598.525 543.897L597.714 544.156C596.255 544.679 594.714 545.2 593.252 545.549C563.288 553.263 533.45 553.908 496.237 547.484C442.42 538.214 395.77 533.222 353.754 532.237C345.595 532.038 336.868 531.99 327.652 531.924C272.598 531.595 204.006 531.206 170.277 499.112C150.472 480.313 138.846 458.06 127.477 436.513C115.853 414.435 103.892 391.647 83.1757 372.001C52.6805 343.047 23.9863 314.51 8.37745 283.289C-8.15913 250.235 -11.0491 213.939 -0.651622 172.416C1.03121 165.754 3.61 159.011 5.3287 154.497C7.28361 149.469 9.56179 144.281 11.7614 139.263C19.5341 121.239 27.6233 102.647 27.0692 84.1278C26.4802 63.5194 7.62899 48.1203 -29.0689 38.4103C-79.2006 25.1659 -146.813 34.6151 -194.676 44.8854L-194.082 46.3C-146.462 36.0783 -79.3384 26.6682 -29.8616 39.7713C5.93469 49.2146 24.2887 64.1306 24.867 84.1008C25.3356 102.385 17.4084 120.925 9.6329 138.775C7.4333 143.792 5.23745 149.043 3.20106 154.067C1.40075 158.578 -1.17695 165.379 -2.85881 172.099C-13.4147 213.906 -10.4401 250.379 6.26459 283.73C21.959 315.185 50.7365 343.841 81.3958 372.86C101.946 392.326 113.906 415.055 125.446 437.015C136.817 458.619 148.526 480.991 168.498 499.971C202.888 532.671 272.052 533.082 327.595 533.43C336.812 533.496 345.457 533.54 353.616 533.739C395.469 534.718 441.956 539.704 495.691 548.97C533.232 555.466 563.559 554.84 593.928 546.967C595.471 546.563 597.012 546.042 598.553 545.522L599.364 545.263C627.909 535.58 651.53 519.213 674.426 503.339C680.956 498.836 687.164 494.553 693.456 490.389C705.394 482.5 716.888 477.319 725.024 476.184C730.801 475.363 734.632 475.279 738.381 475.134C740.99 475.061 743.598 474.988 746.774 474.704C759.069 473.556 769.137 470.872 777.385 466.667C782.318 464.132 787.25 461.597 792.181 459.004C815.871 446.698 840.368 433.96 867.066 426.003C892.142 418.564 923.807 415.032 956.2 416.052C983.127 416.918 1011.48 419.985 1038.85 422.956C1083.46 427.811 1129.62 432.841 1171.05 428.296C1222.09 422.671 1270.89 399.911 1317.98 377.898C1347.36 364.362 1432.96 335.34 1463.37 325.323Z" fill="url(#paint21_radial_35_275)" fill-opacity="0.6"/>
<path d="M1476.09 335.219L1475.17 333.849C1444.34 343.734 1316.27 387.748 1287.3 401.067C1239.55 422.997 1190.26 445.68 1136.94 450.984C1097.2 454.958 1053.4 449.613 1011.07 444.382C980.18 440.579 948.309 436.68 918.703 436.522C882.247 436.389 851.979 440.555 828.958 448.944C810.882 455.552 793.924 465.624 777.532 475.371C765.742 482.396 753.549 489.637 741.249 495.366C730.647 500.292 720.113 504.35 713.051 506.28C709.56 507.247 706.553 507.885 703.467 508.636C699.811 509.48 695.993 510.376 690.878 511.744C680.973 514.435 668.78 521.676 660.311 527.322C656.762 529.678 653.134 532.148 649.504 534.559C625.149 550.956 599.989 567.96 569.048 575.811C567.018 576.312 565.312 576.71 563.768 577.057C531.343 583.922 499.461 579.327 469.839 573.37C424.752 564.263 375.002 559.21 326.064 558.885C316.766 558.816 306.657 559.005 295.976 559.172C240.536 560.104 171.56 561.208 137.196 530.075C116.494 511.299 105.916 488.333 95.7589 466.137C85.5192 443.88 75.0218 420.859 54.1489 401.613C48.8478 396.711 43.3008 391.742 37.9188 386.895C13.163 364.657 -12.3391 341.694 -28.0036 316.908C-48.362 284.518 -53.0307 249.139 -42.2893 208.673C-40.6755 202.763 -38.4135 196.588 -35.5018 190.263C-32.826 184.452 -29.827 178.479 -26.9064 172.677C-17.4327 153.965 -7.72499 134.624 -5.84924 115.097C-3.29619 87.3036 -32.1752 72.0968 -56.9354 64.2397C-105.883 48.6636 -173.83 57.5781 -222.184 67.7714L-221.589 69.186C-173.561 59.0381 -106.265 50.2145 -57.8915 65.5946C-33.787 73.2524 -5.56741 88.0277 -8.05255 115.012C-9.84949 134.368 -19.5594 153.593 -28.9534 172.192C-31.874 177.994 -34.8731 183.967 -37.6304 189.775C-40.5413 196.157 -42.8839 202.387 -44.4967 208.356C-55.3963 249.106 -50.6401 284.836 -30.1145 317.465C-14.3655 342.428 11.3007 365.455 36.0574 387.751C41.4384 392.54 46.9865 397.567 52.2868 402.411C72.911 421.416 83.406 444.32 93.5622 466.458C103.803 488.773 114.383 511.855 135.333 530.873C170.361 562.67 239.988 561.474 295.836 560.559C306.517 560.391 316.545 560.199 325.843 560.268C374.618 560.645 424.122 565.631 469.046 574.731C498.996 580.759 531.205 585.425 564.198 578.407C565.742 578.061 567.448 577.663 569.56 577.165C600.987 569.159 626.31 552.103 650.744 535.535C654.372 533.065 658.002 530.654 661.551 528.298C673.489 520.409 683.839 515.126 691.471 513.043C696.504 511.672 700.322 510.776 703.978 509.931C707.146 509.184 710.07 508.485 713.643 507.579C720.869 505.655 731.564 501.487 742.247 496.565C754.71 490.784 766.902 483.484 778.773 476.462C795.085 466.771 811.881 456.75 829.795 450.252C852.573 441.97 882.434 437.846 918.564 437.966C947.925 438.057 979.796 442.014 1010.52 445.752C1053.02 450.989 1096.98 456.399 1137.04 452.38C1190.77 446.976 1240.31 424.244 1288.22 402.204C1317.44 389.068 1445.42 345.11 1476.09 335.219Z" fill="url(#paint22_radial_35_275)" fill-opacity="0.6"/>
<path d="M1471.83 353.106L1470.91 351.737C1439.92 361.499 1315.05 402.604 1286 415.746C1237.19 437.867 1186.76 460.796 1131.54 465.041C1092.69 468.063 1050.36 462.601 1009.41 457.307C976.146 453.007 941.739 448.604 909.856 448.88C875.528 449.178 845.519 454.223 820.644 463.932C800.793 471.689 784.43 483.176 768.551 494.334C757.991 501.754 747.029 509.449 735.149 515.949L733.452 516.869C724.32 521.909 715.592 526.617 708.467 529.763C700.372 533.335 694.297 535.826 685.954 539.215C676.881 542.866 666.308 549.474 657.193 555.5L654.208 557.472C629.524 573.683 601.613 592.031 567.945 597.688C566.319 597.973 564.529 598.252 562.82 598.476C531.813 602.323 500.963 596.086 471.98 589.284C430.799 579.69 383.261 575.244 326.671 575.725C316.478 575.796 305.313 576.234 293.414 576.702C237.422 578.83 167.739 581.473 132.168 551.336C109.915 532.501 100.296 508.296 90.9341 484.913C82.0826 462.768 72.9736 439.859 53.2558 421.411C43.3964 412.158 32.3956 402.919 21.726 393.982C1.21252 376.721 -20.0443 358.909 -34.6325 339.964C-58.7265 308.531 -65.2547 274.124 -54.5756 234.815C-52.9608 228.963 -50.4589 222.507 -47.3051 216.018C-43.4393 208.223 -38.602 200.002 -33.924 192.007C-22.9803 173.409 -11.6393 154.19 -10.3049 136.439C-8.36296 111.115 -23.4302 92.7891 -56.2575 80.4452C-106.483 61.5723 -181 72.6684 -220.985 80.9815L-220.391 82.3961C-180.73 74.1865 -106.865 63.1231 -57.2961 81.7387C-24.7971 93.9539 -10.5615 111.32 -12.4268 136.357C-13.7651 153.876 -25.0262 172.982 -35.8912 191.409C-40.5691 199.404 -45.4874 207.68 -49.2716 215.478C-52.506 222.022 -55.0057 228.594 -56.6205 234.446C-67.3755 274.1 -60.8423 308.797 -36.4161 340.591C-21.7443 359.656 -0.485781 377.583 20.1093 394.847C30.6973 403.781 41.6973 412.962 51.5557 422.157C71.1074 440.424 80.1318 463.156 88.8997 485.183C98.2641 508.739 107.968 533.063 130.55 552.144C166.783 582.827 237.119 580.21 293.599 578.043C305.416 577.572 316.665 577.194 326.775 577.063C383.12 576.573 430.413 581.009 471.348 590.535C500.577 597.347 531.836 603.716 563.25 599.768C565.04 599.548 566.83 599.269 568.538 598.987C602.694 593.232 630.928 574.723 655.773 558.403L658.758 556.43C667.309 550.846 678.204 543.96 687.114 540.361C695.458 536.973 701.533 534.482 709.71 530.913C716.915 527.712 725.643 522.946 734.855 517.909L736.553 516.989C748.513 510.434 759.476 502.74 770.116 495.264C785.915 484.161 802.197 472.729 821.724 465.075C846.274 455.47 875.957 450.47 909.879 450.215C941.516 449.929 975.843 454.387 1009.02 458.626C1050.13 463.926 1092.55 469.392 1131.73 466.382C1187.44 462.098 1238.11 439.121 1287.16 416.893C1316.22 403.867 1441 362.817 1471.83 353.106Z" fill="url(#paint23_radial_35_275)" fill-opacity="0.6"/>
<path d="M1471.85 368.19L1471.01 366.824C1439.77 376.461 1305.41 426.063 1276.19 439.199C1223.74 462.687 1174.28 484.899 1117.81 487.415C1081.13 489.071 1041 483.809 1002.18 478.772C965.567 473.994 927.726 469.053 892.917 469.912C859.33 470.702 828.771 476.944 804.489 487.951C782.878 497.728 765.331 511.605 748.428 524.985C739.655 531.894 730.64 539.026 721.206 545.505L720.803 545.779C711.934 551.873 703.548 557.58 696.04 562.16C688.371 566.851 681.832 570.832 673.183 575.484C665.02 579.866 655.661 585.941 646.062 592.239C621.539 608.34 591.972 625.232 558.663 627.946C557.115 628.06 555.242 628.22 553.612 628.273C527.938 629.194 502.961 623.01 478.802 616.974C474.462 615.879 470.122 614.841 465.864 613.807C423.45 603.644 378.206 599.809 319.185 601.24C308.262 601.513 296.041 602.259 283.087 602.976C226.3 606.291 155.663 610.463 118.48 581.482C94.1051 562.506 84.7777 536.283 75.7097 510.94C68.0939 489.538 60.14 467.428 43.2133 450.073C30.6844 437.238 14.8999 424.799 -0.469687 412.781C-17.6578 399.302 -35.3424 385.397 -48.4698 370.915C-76.0552 340.392 -84.5216 307.128 -74.3078 269.25C-72.7727 263.511 -70.1096 256.945 -66.7149 250.234C-61.9767 240.965 -55.7772 231.289 -49.8177 221.893C-38.1359 203.556 -26.0566 184.597 -23.0938 166.677C-18.5745 139.424 -31.957 119.423 -63.8343 105.376C-114.523 83.1798 -195.533 96.1707 -227.962 102.804L-227.366 104.277C-195.181 97.6919 -114.904 84.7887 -64.9546 106.666C-33.4067 120.526 -20.775 139.512 -25.2177 166.479C-28.1026 184.17 -40.1023 203.016 -51.786 221.237C-57.7455 230.633 -63.944 240.367 -68.6813 249.694C-72.1566 256.46 -74.8186 263.084 -76.3518 268.939C-86.6404 307.22 -78.0867 340.835 -50.2505 371.716C-37.0397 386.318 -19.2725 400.283 -2.08335 413.821C13.2046 425.835 28.9882 438.216 41.4336 450.932C58.1116 468.045 65.9818 490.037 73.5956 511.322C82.7481 536.843 92.1601 563.243 116.866 582.521C154.793 612.053 226 607.903 283.276 604.549C296.148 603.771 308.37 603.083 319.293 602.809C378.069 601.369 423.068 605.195 465.155 615.287C469.413 616.322 473.753 617.359 478.093 618.455C502.415 624.497 527.639 630.806 553.72 629.843C555.513 629.796 557.304 629.633 558.934 629.522C592.814 626.772 622.703 609.719 647.55 593.456C657.149 587.158 666.427 581.138 674.51 576.811C683.24 572.162 689.779 568.123 697.449 563.491C705.037 558.855 713.423 553.09 722.373 546.999L722.776 546.725C732.291 540.25 741.387 533.063 750.079 526.15C766.901 512.825 784.368 499.061 805.736 489.391C829.695 478.545 859.848 472.403 893.108 471.601C927.755 470.794 965.432 475.671 1001.97 480.446C1040.95 485.547 1081.24 490.757 1118.08 489.107C1175.12 486.556 1227.17 463.226 1277.52 440.642C1306.41 427.377 1440.69 377.772 1471.85 368.19Z" fill="url(#paint24_radial_35_275)" fill-opacity="0.6"/>
<path d="M1479.06 395.135L1478.22 393.769C1446.41 403.267 1321.94 453.377 1292.55 466.332C1239.36 489.792 1189.17 511.976 1130.39 513.416C1094.93 514.308 1056.44 509.109 1019.16 504.132C980.012 498.85 939.635 493.463 902.554 494.988C869.466 496.377 839.252 503.734 815.077 516.253C786.213 531.258 763.72 551.729 742.113 571.538C739.382 574.042 736.651 576.546 733.839 579.046C726.689 585.555 719.121 591.409 711.876 597.044L710.266 598.315C702.859 604.06 695.532 609.692 686.982 615.392C684.483 617.093 681.821 618.846 679.161 620.715C673.356 624.723 667.308 628.839 661.333 632.435C638.405 646.394 610.926 661.279 575.699 661.484C573.905 661.473 572.273 661.468 570.723 661.408C549.174 660.285 528.11 654.021 507.784 647.958C500.326 645.757 493.277 643.629 486.233 641.791C435.037 628.331 380.238 628.592 338.187 630.388C326.696 630.872 313.746 631.88 299.982 632.971C241.991 637.458 169.829 643.078 130.793 615.475C103.971 596.463 94.4378 567.681 85.1649 539.836C78.2078 518.808 71.5964 498.952 58.2 483.01C44.8871 467.187 25.1498 452.449 5.99142 438.198C-8.46017 427.434 -23.4083 416.245 -35.0959 404.95C-65.7669 375.235 -76.1704 343.171 -66.7456 306.887C-65.3659 301.606 -62.9399 295.495 -58.9905 287.819C-53.3068 276.557 -45.585 265.258 -38.1021 254.297C-26.2414 236.895 -13.9835 218.871 -9.63748 200.773C-4.60533 179.801 -6.71342 151.248 -45.1646 134.222C-97.2544 111.16 -169.921 120.762 -208.528 128.548L-207.933 130.021C-169.568 122.341 -97.6343 112.827 -46.2848 135.512C-8.81962 152.094 -6.8038 180.007 -11.7611 200.575C-16.0296 218.444 -28.2079 236.355 -40.0696 253.699C-47.5514 264.718 -55.2721 276.075 -61.0364 287.392C-64.9839 295.184 -67.4089 301.353 -68.8694 306.689C-78.3689 343.376 -67.877 375.849 -36.8737 405.925C-25.1025 417.339 -10.0727 428.532 4.37982 439.354C23.3739 453.541 43.1112 468.278 56.2579 483.921C69.5698 499.686 76.0975 519.422 82.9711 540.331C92.2478 568.408 101.867 597.425 129.183 616.689C168.961 644.842 241.694 639.186 300.091 634.657C313.775 633.62 326.725 632.613 338.134 632.126C379.942 630.378 434.496 630.108 485.281 643.436C492.326 645.274 499.293 647.398 506.751 649.6C527.242 655.727 548.469 661.998 570.344 663.133C571.894 663.193 573.608 663.259 575.483 663.215C611.526 662.984 639.327 647.88 662.497 633.756C668.471 630.102 674.519 625.986 680.405 621.98C683.066 620.17 685.645 618.356 688.228 616.716C696.858 610.961 704.185 605.329 711.673 599.587L713.283 598.316C720.611 592.684 728.097 586.827 735.327 580.264C738.058 577.76 740.789 575.256 743.602 572.755C765.209 553.004 787.541 532.643 816.162 517.745C840.013 505.387 869.822 498.13 902.502 496.783C939.257 495.246 979.553 500.688 1018.54 505.905C1055.89 510.944 1094.56 516.149 1130.26 515.209C1189.61 513.732 1240.04 491.442 1293.47 467.876C1323.02 454.636 1447.41 404.582 1479.06 395.135Z" fill="url(#paint25_radial_35_275)" fill-opacity="0.6"/>
<g filter="url(#filter0_f_35_275)">
<path d="M167.491 14.5836C167.491 6.80543 173.797 0.499977 181.575 0.499977L1422.42 0.500064C1430.19 0.500064 1436.5 6.80551 1436.5 14.5837L1436.5 380.819C1436.5 388.027 1431.06 394.072 1423.89 394.825L183.047 525.258C174.732 526.133 167.491 519.613 167.491 511.252L167.491 14.5836Z" fill="white"/>
</g>
<defs>
<filter id="filter0_f_35_275" x="69.9222" y="-97.069" width="1464.15" height="719.975" filterUnits="userSpaceOnUse" color-interpolation-filters="sRGB">
<feFlood flood-opacity="0" result="BackgroundImageFix"/>
<feBlend mode="normal" in="SourceGraphic" in2="BackgroundImageFix" result="shape"/>
<feGaussianBlur stdDeviation="48.7845" result="effect1_foregroundBlur_35_275"/>
</filter>
<radialGradient id="paint0_radial_35_275" cx="0" cy="0" r="1" gradientTransform="matrix(-506.113 250.639 412.533 313.454 602.462 102.932)" gradientUnits="userSpaceOnUse">
<stop stop-color="#D49C01" stop-opacity="0.3"/>
<stop offset="0.1773" stop-color="#D47D02" stop-opacity="0.45"/>
<stop offset="0.4898" stop-color="#D46202" stop-opacity="0.72"/>
<stop offset="0.8151" stop-color="#D4B901"/>
<stop offset="0.9145" stop-color="#D48601"/>
<stop offset="0.9995" stop-color="#D46001" stop-opacity="0.2"/>
</radialGradient>
<radialGradient id="paint1_radial_35_275" cx="0" cy="0" r="1" gradientTransform="matrix(-505.098 251.248 411.741 314.051 599.201 108.363)" gradientUnits="userSpaceOnUse">
<stop stop-color="#D49C01" stop-opacity="0.3"/>
<stop offset="0.1773" stop-color="#D47D02" stop-opacity="0.45"/>
<stop offset="0.4898" stop-color="#D46202" stop-opacity="0.72"/>
<stop offset="0.8151" stop-color="#D4B901"/>
<stop offset="0.9145" stop-color="#D48601"/>
<stop offset="0.9995" stop-color="#D46001" stop-opacity="0.2"/>
</radialGradient>
<radialGradient id="paint2_radial_35_275" cx="0" cy="0" r="1" gradientTransform="matrix(-504.097 252.556 410.983 315.42 595.965 113.096)" gradientUnits="userSpaceOnUse">
<stop stop-color="#D49C01" stop-opacity="0.3"/>
<stop offset="0.1773" stop-color="#D47D02" stop-opacity="0.45"/>
<stop offset="0.4898" stop-color="#D46202" stop-opacity="0.72"/>
<stop offset="0.8151" stop-color="#D4B901"/>
<stop offset="0.9145" stop-color="#D48601"/>
<stop offset="0.9995" stop-color="#D46001" stop-opacity="0.2"/>
</radialGradient>
<radialGradient id="paint3_radial_35_275" cx="0" cy="0" r="1" gradientTransform="matrix(-502.998 253.68 410.14 316.578 592.909 118.088)" gradientUnits="userSpaceOnUse">
<stop stop-color="#D49C01" stop-opacity="0.3"/>
<stop offset="0.1773" stop-color="#D47D02" stop-opacity="0.45"/>
<stop offset="0.4898" stop-color="#D46202" stop-opacity="0.72"/>
<stop offset="0.8151" stop-color="#D4B901"/>
<stop offset="0.9145" stop-color="#D48601"/>
<stop offset="0.9995" stop-color="#D46001" stop-opacity="0.2"/>
</radialGradient>
<radialGradient id="paint4_radial_35_275" cx="0" cy="0" r="1" gradientTransform="matrix(-502.002 254.675 409.376 317.602 589.597 123.154)" gradientUnits="userSpaceOnUse">
<stop stop-color="#D49C01" stop-opacity="0.3"/>
<stop offset="0.1773" stop-color="#D47D02" stop-opacity="0.45"/>
<stop offset="0.4898" stop-color="#D46202" stop-opacity="0.72"/>
<stop offset="0.8151" stop-color="#D4B901"/>
<stop offset="0.9145" stop-color="#D48601"/>
<stop offset="0.9995" stop-color="#D46001" stop-opacity="0.2"/>
</radialGradient>
<radialGradient id="paint5_radial_35_275" cx="0" cy="0" r="1" gradientTransform="matrix(-501.004 255.839 408.614 318.811 586.369 128.213)" gradientUnits="userSpaceOnUse">
<stop stop-color="#D49C01" stop-opacity="0.3"/>
<stop offset="0.1773" stop-color="#D47D02" stop-opacity="0.45"/>
<stop offset="0.4898" stop-color="#D46202" stop-opacity="0.72"/>
<stop offset="0.8151" stop-color="#D4B901"/>
<stop offset="0.9145" stop-color="#D48601"/>
<stop offset="0.9995" stop-color="#D46001" stop-opacity="0.2"/>
</radialGradient>
<radialGradient id="paint6_radial_35_275" cx="0" cy="0" r="1" gradientTransform="matrix(-500.055 257.021 407.893 320.044 583.044 133.011)" gradientUnits="userSpaceOnUse">
<stop stop-color="#D49C01" stop-opacity="0.3"/>
<stop offset="0.1773" stop-color="#D47D02" stop-opacity="0.45"/>
<stop offset="0.4898" stop-color="#D46202" stop-opacity="0.72"/>
<stop offset="0.8151" stop-color="#D4B901"/>
<stop offset="0.9145" stop-color="#D48601"/>
<stop offset="0.9995" stop-color="#D46001" stop-opacity="0.2"/>
</radialGradient>
<radialGradient id="paint7_radial_35_275" cx="0" cy="0" r="1" gradientTransform="matrix(-499.143 257.456 407.179 320.457 579.613 139.035)" gradientUnits="userSpaceOnUse">
<stop stop-color="#D49C01" stop-opacity="0.3"/>
<stop offset="0.1773" stop-color="#D47D02" stop-opacity="0.45"/>
<stop offset="0.4898" stop-color="#D46202" stop-opacity="0.72"/>
<stop offset="0.8151" stop-color="#D4B901"/>
<stop offset="0.9145" stop-color="#D48601"/>
<stop offset="0.9995" stop-color="#D46001" stop-opacity="0.2"/>
</radialGradient>
<radialGradient id="paint8_radial_35_275" cx="0" cy="0" r="1" gradientTransform="matrix(-498.146 257.061 406.368 319.949 576.457 145.891)" gradientUnits="userSpaceOnUse">
<stop stop-color="#D49C01" stop-opacity="0.3"/>
<stop offset="0.1773" stop-color="#D47D02" stop-opacity="0.45"/>
<stop offset="0.4898" stop-color="#D46202" stop-opacity="0.72"/>
<stop offset="0.8151" stop-color="#D4B901"/>
<stop offset="0.9145" stop-color="#D48601"/>
<stop offset="0.9995" stop-color="#D46001" stop-opacity="0.2"/>
</radialGradient>
<radialGradient id="paint9_radial_35_275" cx="0" cy="0" r="1" gradientTransform="matrix(-497.302 256.489 405.675 319.256 573.027 152.499)" gradientUnits="userSpaceOnUse">
<stop stop-color="#D49C01" stop-opacity="0.3"/>
<stop offset="0.1773" stop-color="#D47D02" stop-opacity="0.45"/>
<stop offset="0.4898" stop-color="#D46202" stop-opacity="0.72"/>
<stop offset="0.8151" stop-color="#D4B901"/>
<stop offset="0.9145" stop-color="#D48601"/>
<stop offset="0.9995" stop-color="#D46001" stop-opacity="0.2"/>
</radialGradient>
<radialGradient id="paint10_radial_35_275" cx="0" cy="0" r="1" gradientTransform="matrix(-496.331 255.973 404.883 318.616 569.746 159.455)" gradientUnits="userSpaceOnUse">
<stop stop-color="#D49C01" stop-opacity="0.3"/>
<stop offset="0.1773" stop-color="#D47D02" stop-opacity="0.45"/>
<stop offset="0.4898" stop-color="#D46202" stop-opacity="0.72"/>
<stop offset="0.8151" stop-color="#D4B901"/>
<stop offset="0.9145" stop-color="#D48601"/>
<stop offset="0.9995" stop-color="#D46001" stop-opacity="0.2"/>
</radialGradient>
<radialGradient id="paint11_radial_35_275" cx="0" cy="0" r="1" gradientTransform="matrix(-495.556 255.746 404.257 318.309 566.179 165.819)" gradientUnits="userSpaceOnUse">
<stop stop-color="#D49C01" stop-opacity="0.3"/>
<stop offset="0.1773" stop-color="#D47D02" stop-opacity="0.45"/>
<stop offset="0.4898" stop-color="#D46202" stop-opacity="0.72"/>
<stop offset="0.8151" stop-color="#D4B901"/>
<stop offset="0.9145" stop-color="#D48601"/>
<stop offset="0.9995" stop-color="#D46001" stop-opacity="0.2"/>
</radialGradient>
<radialGradient id="paint12_radial_35_275" cx="0" cy="0" r="1" gradientTransform="matrix(-494.624 255.927 403.517 318.44 562.881 172.087)" gradientUnits="userSpaceOnUse">
<stop stop-color="#D49C01" stop-opacity="0.3"/>
<stop offset="0.1773" stop-color="#D47D02" stop-opacity="0.45"/>
<stop offset="0.4898" stop-color="#D46202" stop-opacity="0.72"/>
<stop offset="0.8151" stop-color="#D4B901"/>
<stop offset="0.9145" stop-color="#D48601"/>
<stop offset="0.9995" stop-color="#D46001" stop-opacity="0.2"/>
</radialGradient>
<radialGradient id="paint13_radial_35_275" cx="0" cy="0" r="1" gradientTransform="matrix(-493.792 256.133 402.859 318.606 559.319 178.259)" gradientUnits="userSpaceOnUse">
<stop stop-color="#D49C01" stop-opacity="0.3"/>
<stop offset="0.1773" stop-color="#D47D02" stop-opacity="0.45"/>
<stop offset="0.4898" stop-color="#D46202" stop-opacity="0.72"/>
<stop offset="0.8151" stop-color="#D4B901"/>
<stop offset="0.9145" stop-color="#D48601"/>
<stop offset="0.9995" stop-color="#D46001" stop-opacity="0.2"/>
</radialGradient>
<radialGradient id="paint14_radial_35_275" cx="0" cy="0" r="1" gradientTransform="matrix(-492.984 256.42 402.222 318.863 555.786 184.025)" gradientUnits="userSpaceOnUse">
<stop stop-color="#D49C01" stop-opacity="0.3"/>
<stop offset="0.1773" stop-color="#D47D02" stop-opacity="0.45"/>
<stop offset="0.4898" stop-color="#D46202" stop-opacity="0.72"/>
<stop offset="0.8151" stop-color="#D4B901"/>
<stop offset="0.9145" stop-color="#D48601"/>
<stop offset="0.9995" stop-color="#D46001" stop-opacity="0.2"/>
</radialGradient>
<radialGradient id="paint15_radial_35_275" cx="0" cy="0" r="1" gradientTransform="matrix(-492.147 256.904 401.568 319.336 552.302 189.823)" gradientUnits="userSpaceOnUse">
<stop stop-color="#D49C01" stop-opacity="0.3"/>
<stop offset="0.1773" stop-color="#D47D02" stop-opacity="0.45"/>
<stop offset="0.4898" stop-color="#D46202" stop-opacity="0.72"/>
<stop offset="0.8151" stop-color="#D4B901"/>
<stop offset="0.9145" stop-color="#D48601"/>
<stop offset="0.9995" stop-color="#D46001" stop-opacity="0.2"/>
</radialGradient>
<radialGradient id="paint16_radial_35_275" cx="0" cy="0" r="1" gradientTransform="matrix(-491.409 257.495 400.997 319.932 548.546 195.15)" gradientUnits="userSpaceOnUse">
<stop stop-color="#D49C01" stop-opacity="0.3"/>
<stop offset="0.1773" stop-color="#D1A403" stop-opacity="0.45"/>
<stop offset="0.4898" stop-color="#D46202" stop-opacity="0.72"/>
<stop offset="0.8151" stop-color="#D16002"/>
<stop offset="0.9145" stop-color="#D4B901"/>
<stop offset="0.9995" stop-color="#D46001" stop-opacity="0.2"/>
</radialGradient>
<radialGradient id="paint17_radial_35_275" cx="0" cy="0" r="1" gradientTransform="matrix(-490.492 258.286 400.289 320.738 545.182 200.247)" gradientUnits="userSpaceOnUse">
<stop stop-color="#D49C01" stop-opacity="0.3"/>
<stop offset="0.1773" stop-color="#D68503" stop-opacity="0.45"/>
<stop offset="0.4898" stop-color="#D46202" stop-opacity="0.72"/>
<stop offset="0.8151" stop-color="#D58305"/>
<stop offset="0.9145" stop-color="#D4B901"/>
<stop offset="0.9995" stop-color="#D98501" stop-opacity="0.2"/>
</radialGradient>
<radialGradient id="paint18_radial_35_275" cx="0" cy="0" r="1" gradientTransform="matrix(-489.87 259.439 399.828 321.963 541.282 205.263)" gradientUnits="userSpaceOnUse">
<stop stop-color="#EDBE98" stop-opacity="0.3"/>
<stop offset="0.1773" stop-color="#D4A601" stop-opacity="0.45"/>
<stop offset="0.4898" stop-color="#D46001" stop-opacity="0.75"/>
<stop offset="0.8151" stop-color="#D4A601"/>
<stop offset="0.9145" stop-color="#D46001"/>
<stop offset="0.9995" stop-color="#EED3A5" stop-opacity="0.2"/>
</radialGradient>
<radialGradient id="paint19_radial_35_275" cx="0" cy="0" r="1" gradientTransform="matrix(-488.971 260.615 399.147 323.193 537.791 210.402)" gradientUnits="userSpaceOnUse">
<stop stop-color="#D49C01" stop-opacity="0.3"/>
<stop offset="0.1773" stop-color="#D1A403" stop-opacity="0.45"/>
<stop offset="0.4898" stop-color="#D46202" stop-opacity="0.72"/>
<stop offset="0.8151" stop-color="#D58305"/>
<stop offset="0.9145" stop-color="#D4B901"/>
<stop offset="0.9995" stop-color="#D98501" stop-opacity="0.2"/>
</radialGradient>
<radialGradient id="paint20_radial_35_275" cx="0" cy="0" r="1" gradientTransform="matrix(-488.171 261.884 398.548 324.533 534.203 215.471)" gradientUnits="userSpaceOnUse">
<stop stop-color="#D49C01" stop-opacity="0.3"/>
<stop offset="0.1773" stop-color="#D68503" stop-opacity="0.45"/>
<stop offset="0.4898" stop-color="#D46202" stop-opacity="0.72"/>
<stop offset="0.8151" stop-color="#D16002"/>
<stop offset="0.9145" stop-color="#D4B901"/>
<stop offset="0.9995" stop-color="#D98501" stop-opacity="0.2"/>
</radialGradient>
<radialGradient id="paint21_radial_35_275" cx="0" cy="0" r="1" gradientTransform="matrix(-487.497 263.162 398.05 325.893 531.505 223.734)" gradientUnits="userSpaceOnUse">
<stop stop-color="#D49C01" stop-opacity="0.3"/>
<stop offset="0.1773" stop-color="#D1A403" stop-opacity="0.45"/>
<stop offset="0.4898" stop-color="#D46202" stop-opacity="0.72"/>
<stop offset="0.8151" stop-color="#D16002"/>
<stop offset="0.9145" stop-color="#D4B901"/>
<stop offset="0.9995" stop-color="#D46001" stop-opacity="0.2"/>
</radialGradient>
<radialGradient id="paint22_radial_35_275" cx="0" cy="0" r="1" gradientTransform="matrix(-486.758 265.354 397.528 328.254 503.006 249.144)" gradientUnits="userSpaceOnUse">
<stop stop-color="#D49C01" stop-opacity="0.3"/>
<stop offset="0.1773" stop-color="#D68503" stop-opacity="0.45"/>
<stop offset="0.4898" stop-color="#D46202" stop-opacity="0.72"/>
<stop offset="0.8151" stop-color="#D48601"/>
<stop offset="0.9145" stop-color="#D4B901"/>
<stop offset="0.9995" stop-color="#D98501" stop-opacity="0.2"/>
</radialGradient>
<radialGradient id="paint23_radial_35_275" cx="0" cy="0" r="1" gradientTransform="matrix(-486.016 267.682 397.009 330.766 503.215 264.972)" gradientUnits="userSpaceOnUse">
<stop stop-color="#D49C01" stop-opacity="0.3"/>
<stop offset="0.1773" stop-color="#D1A403" stop-opacity="0.45"/>
<stop offset="0.4898" stop-color="#D46202" stop-opacity="0.72"/>
<stop offset="0.8151" stop-color="#D58305"/>
<stop offset="0.9145" stop-color="#D4B901"/>
<stop offset="0.9995" stop-color="#D98501" stop-opacity="0.2"/>
</radialGradient>
<radialGradient id="paint24_radial_35_275" cx="0" cy="0" r="1" gradientTransform="matrix(-485.236 270.765 396.484 334.107 495.218 289.835)" gradientUnits="userSpaceOnUse">
<stop stop-color="#D49C01" stop-opacity="0.3"/>
<stop offset="0.1773" stop-color="#D68503" stop-opacity="0.45"/>
<stop offset="0.4898" stop-color="#D46202" stop-opacity="0.72"/>
<stop offset="0.8151" stop-color="#D58305"/>
<stop offset="0.9145" stop-color="#D4B901"/>
<stop offset="0.9995" stop-color="#D98501" stop-opacity="0.2"/>
</radialGradient>
<radialGradient id="paint25_radial_35_275" cx="0" cy="0" r="1" gradientTransform="matrix(-484.527 274.104 396.023 337.736 513.748 318.911)" gradientUnits="userSpaceOnUse">
<stop stop-color="#D58305" stop-opacity="0.3"/>
<stop offset="0.1773" stop-color="#D16002" stop-opacity="0.45"/>
<stop offset="0.4898" stop-color="#D1A403" stop-opacity="0.72"/>
<stop offset="0.8151" stop-color="#D47D02" stop-opacity="0.45"/>
<stop offset="0.9145" stop-color="#D16002"/>
<stop offset="0.9995" stop-color="#D98501" stop-opacity="0.2"/>
</radialGradient>
</defs>
</svg>
